<?xml version="1.0" encoding="UTF-8"?>
<svg version="1.1" xmlns="http://www.w3.org/2000/svg" width="40" height="40">
<path d="M0 0 C6.373125 -0.061875 6.373125 -0.061875 12.875 -0.125 C14.88376221 -0.15231201 14.88376221 -0.15231201 16.93310547 -0.18017578 C17.98385254 -0.1851709 19.03459961 -0.19016602 20.1171875 -0.1953125 C21.19597168 -0.20578613 22.27475586 -0.21625977 23.38623047 -0.22705078 C26 0 26 0 28 2 C28.24291992 4.50610352 28.24291992 4.50610352 28.23046875 7.62890625 C28.22853516 8.74587891 28.22660156 9.86285156 28.22460938 11.01367188 C28.20624023 12.7703418 28.20624023 12.7703418 28.1875 14.5625 C28.18685547 15.73748047 28.18621094 16.91246094 28.18554688 18.12304688 C28.14012141 26.85987859 28.14012141 26.85987859 27 28 C25.00035018 28.08758003 22.9976389 28.10696576 20.99609375 28.09765625 C19.90224365 28.09515869 18.80839355 28.09266113 17.68139648 28.09008789 C16.28091064 28.08098389 14.8804248 28.07187988 13.4375 28.0625 C6.7859375 28.0315625 6.7859375 28.0315625 0 28 C0 18.76 0 9.52 0 0 Z M7 6 C7 7.65 7 9.3 7 11 C8.65 11 10.3 11 12 11 C12.33 10.01 12.66 9.02 13 8 C13.66 7.67 14.32 7.34 15 7 C15.33 8.32 15.66 9.64 16 11 C17.65 11 19.3 11 21 11 C21 9.35 21 7.7 21 6 C16.38 6 11.76 6 7 6 Z M7 14 C7 16.97 7 19.94 7 23 C11.62 23 16.24 23 21 23 C21 21.35 21 19.7 21 18 C20.34 18 19.68 18 19 18 C19 18.99 19 19.98 19 21 C18.01 21 17.02 21 16 21 C16 20.34 16 19.68 16 19 C12.39007621 19.65585189 12.39007621 19.65585189 9 21 C9.33 19.02 9.66 17.04 10 15 C9.01 14.67 8.02 14.34 7 14 Z " fill="#131316" transform="translate(6,6)"/>
<path d="M0 0 C7.26 0 14.52 0 22 0 C22.33 0.99 22.66 1.98 23 3 C17.06 3 11.12 3 5 3 C5.33 5.31 5.66 7.62 6 10 C5.44140625 12.87109375 5.44140625 12.87109375 4.5625 15.4375 C4.27503906 16.30246094 3.98757812 17.16742187 3.69140625 18.05859375 C3.46324219 18.69925781 3.23507812 19.33992188 3 20 C6.07588047 21.02529349 8.98889247 21.54659556 12.1875 22.0625 C13.27417969 22.23910156 14.36085938 22.41570313 15.48046875 22.59765625 C16.31191406 22.73042969 17.14335937 22.86320312 18 23 C16.98046875 24.48828125 16.98046875 24.48828125 15 26 C12.33106037 26.21876554 9.96499713 26.28335295 7.3125 26.1875 C4.899375 26.125625 2.48625 26.06375 0 26 C0 17.42 0 8.84 0 0 Z " fill="#0B0C0E" transform="translate(7,7)"/>
<path d="M0 0 C6.373125 -0.061875 6.373125 -0.061875 12.875 -0.125 C14.88376221 -0.15231201 14.88376221 -0.15231201 16.93310547 -0.18017578 C17.98385254 -0.1851709 19.03459961 -0.19016602 20.1171875 -0.1953125 C21.19597168 -0.20578613 22.27475586 -0.21625977 23.38623047 -0.22705078 C26 0 26 0 28 2 C28.1953125 4.6015625 28.1953125 4.6015625 28.125 7.625 C28.10695313 8.62789062 28.08890625 9.63078125 28.0703125 10.6640625 C28.04710938 11.43492188 28.02390625 12.20578125 28 13 C27.34 11.68 26.68 10.36 26 9 C24.35 9.33 22.7 9.66 21 10 C21 8.68 21 7.36 21 6 C16.05 6 11.1 6 6 6 C6 5.34 6 4.68 6 4 C14.415 3.505 14.415 3.505 23 3 C23 2.34 23 1.68 23 1 C15.74 1 8.48 1 1 1 C1 9.58 1 18.16 1 27 C5.95 27 10.9 27 16 27 C16 27.33 16 27.66 16 28 C10.72 28 5.44 28 0 28 C0 18.76 0 9.52 0 0 Z " fill="#4A494C" transform="translate(6,6)"/>
<path d="M0 0 C0.33 0.99 0.66 1.98 1 3 C1.99 2.67 2.98 2.34 4 2 C4 3.65 4 5.3 4 7 C3.34 7 2.68 7 2 7 C2.99 8.485 2.99 8.485 4 10 C3.625 12.1875 3.625 12.1875 3 14 C3 13.34 3 12.68 3 12 C2.34 12 1.68 12 1 12 C1 10.68 1 9.36 1 8 C-0.32 7.67 -1.64 7.34 -3 7 C-2.01 4.69 -1.02 2.38 0 0 Z " fill="#150809" transform="translate(29,12)"/>
<path d="M0 0 C2.31 0.33 4.62 0.66 7 1 C7.33 3.31 7.66 5.62 8 8 C7.34 8 6.68 8 6 8 C6 6.35 6 4.7 6 3 C5.34 3 4.68 3 4 3 C4 3.99 4 4.98 4 6 C3.01 6 2.02 6 1 6 C1 5.34 1 4.68 1 4 C0.01 4 -0.98 4 -2 4 C-1.34 2.68 -0.68 1.36 0 0 Z " fill="#33302E" transform="translate(21,21)"/>
<path d="M0 0 C0.66 0 1.32 0 2 0 C3.37252731 2.74505463 3.13229255 5.00327412 3.125 8.0625 C3.12757812 9.14660156 3.13015625 10.23070312 3.1328125 11.34765625 C3 14 3 14 2 15 C0.31391034 15.07205511 -1.37500659 15.08386068 -3.0625 15.0625 C-3.98160156 15.05347656 -4.90070312 15.04445313 -5.84765625 15.03515625 C-6.55792969 15.02355469 -7.26820312 15.01195312 -8 15 C-8 14.67 -8 14.34 -8 14 C-6.88625 13.896875 -5.7725 13.79375 -4.625 13.6875 C-3.42875 13.460625 -2.2325 13.23375 -1 13 C1.32623648 9.51064529 1.25072494 8.09517402 1 4 C0.56058477 1.73433657 0.56058477 1.73433657 0 0 Z " fill="#596357" transform="translate(31,19)"/>
<path d="M0 0 C0.99 0.99 1.98 1.98 3 3 C2.34 3 1.68 3 1 3 C1 5.64 1 8.28 1 11 C0.01 11.495 0.01 11.495 -1 12 C-1.66 11.34 -2.32 10.68 -3 10 C-2.01 6.7 -1.02 3.4 0 0 Z " fill="#27242A" transform="translate(12,17)"/>
<path d="M0 0 C1.32 0 2.64 0 4 0 C3.1875 2.9375 3.1875 2.9375 2 6 C1.01 6.33 0.02 6.66 -1 7 C-0.67 4.69 -0.34 2.38 0 0 Z " fill="#130A10" transform="translate(8,19)"/>
<path d="M0 0 C0.33 0 0.66 0 1 0 C1 1.65 1 3.3 1 5 C-2.3 5 -5.6 5 -9 5 C-9 4.67 -9 4.34 -9 4 C-7.88625 3.896875 -6.7725 3.79375 -5.625 3.6875 C-4.42875 3.460625 -3.2325 3.23375 -2 3 C-1.34 2.01 -0.68 1.02 0 0 Z " fill="#3B3239" transform="translate(32,29)"/>
<path d="" fill="#D7E8FF" transform="translate(0,0)"/>
</svg>
