<?xml version="1.0" encoding="UTF-8"?>
<svg version="1.1" xmlns="http://www.w3.org/2000/svg" width="40" height="40">
<path d="M0 0 C1.34771484 -0.05510742 1.34771484 -0.05510742 2.72265625 -0.11132812 C9.15904962 -0.15411065 9.15904962 -0.15411065 11.83691406 1.83251953 C15.15343272 5.68430665 16.27161186 9.16117958 16.3125 14.125 C16.32667969 14.91003906 16.34085938 15.69507813 16.35546875 16.50390625 C16.125 18.5625 16.125 18.5625 14.125 20.5625 C11.359375 20.82128906 11.359375 20.82128906 7.875 20.828125 C6.00328125 20.83199219 6.00328125 20.83199219 4.09375 20.8359375 C2.12921875 20.82433594 2.12921875 20.82433594 0.125 20.8125 C-1.1846875 20.82023437 -2.494375 20.82796875 -3.84375 20.8359375 C-5.0915625 20.83335938 -6.339375 20.83078125 -7.625 20.828125 C-9.34976562 20.82474121 -9.34976562 20.82474121 -11.109375 20.82128906 C-13.875 20.5625 -13.875 20.5625 -15.875 18.5625 C-16.74106125 12.93872566 -15.97450501 8.38395223 -12.875 3.5625 C-9.3651161 -0.76307937 -5.21082469 0.0111184 0 0 Z M-5.875 10.5625 C-5.875 11.5525 -5.875 12.5425 -5.875 13.5625 C-4.885 13.5625 -3.895 13.5625 -2.875 13.5625 C-3.205 12.5725 -3.535 11.5825 -3.875 10.5625 C-4.535 10.5625 -5.195 10.5625 -5.875 10.5625 Z M4.125 10.5625 C3.795 11.5525 3.465 12.5425 3.125 13.5625 C4.445 13.2325 5.765 12.9025 7.125 12.5625 C6.795 11.9025 6.465 11.2425 6.125 10.5625 C5.465 10.5625 4.805 10.5625 4.125 10.5625 Z " fill="#0D0D0D" transform="translate(19.875,9.4375)"/>
<path d="M0 0 C2.62187494 1.04874998 3.79371361 1.64931313 5.25 4.125 C5.4975 4.74375 5.745 5.3625 6 6 C3.03 5.505 3.03 5.505 0 5 C0 3.35 0 1.7 0 0 Z " fill="#13110C" transform="translate(28,10)"/>
</svg>
