<?xml version="1.0" encoding="UTF-8"?>
<svg version="1.1" xmlns="http://www.w3.org/2000/svg" width="40" height="40">
<path d="M0 0 C0.90234375 -0.01546875 1.8046875 -0.0309375 2.734375 -0.046875 C6.52653462 -0.02443619 9.23005804 0.08256159 12.59375 1.90625 C14.81259099 5.99877894 14.57849853 9.92091891 14.5 14.5 C14.51546875 15.40234375 14.5309375 16.3046875 14.546875 17.234375 C14.52443619 21.02653462 14.41743841 23.73005804 12.59375 27.09375 C8.50122106 29.31259099 4.57908109 29.07849853 0 29 C-1.35351562 29.02320313 -1.35351562 29.02320313 -2.734375 29.046875 C-6.52653462 29.02443619 -9.23005804 28.91743841 -12.59375 27.09375 C-14.81259099 23.00122106 -14.57849853 19.07908109 -14.5 14.5 C-14.51546875 13.59765625 -14.5309375 12.6953125 -14.546875 11.765625 C-14.52443619 7.97346538 -14.41743841 5.26994196 -12.59375 1.90625 C-8.50122106 -0.31259099 -4.57908109 -0.07849853 0 0 Z M7 4.5 C7 5.82 7 7.14 7 8.5 C7.99 8.17 8.98 7.84 10 7.5 C9.67 6.51 9.34 5.52 9 4.5 C8.34 4.5 7.68 4.5 7 4.5 Z M-5.375 9.125 C-7.48706506 12.21186432 -7.61195145 13.8282913 -7 17.5 C-5.5 20 -5.5 20 -3 21.5 C0.6717087 22.11195145 2.28813568 21.98706506 5.375 19.875 C7.48706506 16.78813568 7.61195145 15.1717087 7 11.5 C5.5 9 5.5 9 3 7.5 C-0.6717087 6.88804855 -2.28813568 7.01293494 -5.375 9.125 Z " fill="#1C141A" transform="translate(20,5.5)"/>
<path d="M0 0 C1.875 1.125 1.875 1.125 3 3 C3.39365568 6.14924548 3.52854531 8.11909116 1.875 10.875 C-0.88090884 12.52854531 -2.85075452 12.39365568 -6 12 C-7.875 10.875 -7.875 10.875 -9 9 C-9.39365568 5.85075452 -9.52854531 3.88090884 -7.875 1.125 C-5.11909116 -0.52854531 -3.14924548 -0.39365568 0 0 Z " fill="#0F061C" transform="translate(23,14)"/>
<path d="M0 0 C0.66 0 1.32 0 2 0 C2 0.66 2 1.32 2 2 C3.65 1.34 5.3 0.68 7 0 C7.66 1.98 8.32 3.96 9 6 C7.68 6.33 6.36 6.66 5 7 C5 6.34 5 5.68 5 5 C4.01 4.67 3.02 4.34 2 4 C2.33 5.32 2.66 6.64 3 8 C3.66 8 4.32 8 5 8 C5.33 8.66 5.66 9.32 6 10 C6.99 10 7.98 10 9 10 C8.67 11.32 8.34 12.64 8 14 C5.125 13.6875 5.125 13.6875 2 13 C-0.20914 9.68629 -0.22481553 8.6553979 -0.125 4.8125 C-0.10695313 3.91144531 -0.08890625 3.01039062 -0.0703125 2.08203125 C-0.04710937 1.39496094 -0.02390625 0.70789063 0 0 Z " fill="#192A16" transform="translate(6,20)"/>
<path d="M0 0 C1.0625 1.8125 1.0625 1.8125 2 4 C1 7 1 7 -1 8 C-0.01 8.66 0.98 9.32 2 10 C1.34 11.32 0.68 12.64 0 14 C-0.99 14 -1.98 14 -3 14 C-3 13.34 -3 12.68 -3 12 C-3.66 12 -4.32 12 -5 12 C-5 9.36 -5 6.72 -5 4 C-4.01 3.67 -3.02 3.34 -2 3 C-0.84188612 1.94729537 -0.84188612 1.94729537 0 0 Z " fill="#201222" transform="translate(11,8)"/>
<path d="M0 0 C-0.20625 0.7425 -0.4125 1.485 -0.625 2.25 C-1.05334069 5.39116506 -0.51935145 6.31879156 1 9 C1 9.99 1 10.98 1 12 C-1.9375 11.625 -1.9375 11.625 -5 11 C-6.39935013 8.20129973 -6.25265405 6.09501208 -6 3 C-4.04062003 0.20088576 -3.50082948 0 0 0 Z " fill="#1B1C17" transform="translate(20,14)"/>
<path d="M0 0 C-0.66 1.98 -1.32 3.96 -2 6 C-3.65 6 -5.3 6 -7 6 C-7 5.34 -7 4.68 -7 4 C-8.32 4.33 -9.64 4.66 -11 5 C-11 3.35 -11 1.7 -11 0 C-6.94952424 -1.35015859 -4.2079832 -0.62084998 0 0 Z " fill="#18290F" transform="translate(28,7)"/>
<path d="M0 0 C1.65 0 3.3 0 5 0 C5 0.66 5 1.32 5 2 C5.804375 2.12375 6.60875 2.2475 7.4375 2.375 C8.7059375 2.684375 8.7059375 2.684375 10 3 C10.33 3.66 10.66 4.32 11 5 C8.525 6.485 8.525 6.485 6 8 C5.67 7.67 5.34 7.34 5 7 C4.67 7.66 4.34 8.32 4 9 C3.67 7.35 3.34 5.7 3 4 C1.68 4.33 0.36 4.66 -1 5 C-0.67 3.35 -0.34 1.7 0 0 Z " fill="#140C25" transform="translate(8,24)"/>
<path d="M0 0 C6.25 -0.48076923 6.25 -0.48076923 9.4375 1.5625 C11.5248128 4.81870797 11.2915423 7.20995016 11 11 C10.443125 10.21625 9.88625 9.4325 9.3125 8.625 C6.92331435 5.91295142 5.39926587 5.03866457 2 4 C2.33 3.34 2.66 2.68 3 2 C2.01 2 1.02 2 0 2 C0 1.34 0 0.68 0 0 Z " fill="#111A1E" transform="translate(23,6)"/>
<path d="M0 0 C1.32 0 2.64 0 4 0 C4 2.31 4 4.62 4 7 C1.36 7 -1.28 7 -4 7 C-2.92598892 4.08482708 -2.22189824 2.22189824 0 0 Z " fill="#111313" transform="translate(18,27)"/>
<path d="M0 0 C0.66 0 1.32 0 2 0 C2.33 0.66 2.66 1.32 3 2 C3.99 2 4.98 2 6 2 C5.67 3.32 5.34 4.64 5 6 C2.03 5.505 2.03 5.505 -1 5 C-1.33 4.01 -1.66 3.02 -2 2 C-1.34 2 -0.68 2 0 2 C0 1.34 0 0.68 0 0 Z " fill="#1E1407" transform="translate(9,28)"/>
<path d="M0 0 C0.33 1.32 0.66 2.64 1 4 C2.32 4.33 3.64 4.66 5 5 C5 5.99 5 6.98 5 8 C3.02 8 1.04 8 -1 8 C-2.2077558 4.37673261 -1.54311128 3.35853631 0 0 Z " fill="#0E2B30" transform="translate(23,26)"/>
<path d="M0 0 C0 0.66 0 1.32 0 2 C-0.66 2 -1.32 2 -2 2 C-2 3.65 -2 5.3 -2 7 C-2.66 7 -3.32 7 -4 7 C-4 6.34 -4 5.68 -4 5 C-4.99 5.33 -5.98 5.66 -7 6 C-4.84615385 0 -4.84615385 0 0 0 Z " fill="#111E14" transform="translate(13,6)"/>
<path d="M0 0 C-1.28965176 1.37562854 -2.62689293 2.70766393 -4 4 C-4.66 4 -5.32 4 -6 4 C-6 2.68 -6 1.36 -6 0 C-3.50907189 -1.24546405 -2.58919267 -0.7767578 0 0 Z " fill="#0F0E12" transform="translate(34,30)"/>
<path d="M0 0 C2 3 2 3 3 6 C1.68 6.33 0.36 6.66 -1 7 C-1 6.34 -1 5.68 -1 5 C-2.45833358 3.37485532 -2.45833358 3.37485532 -4 2 C-2.68 1.34 -1.36 0.68 0 0 Z " fill="#26190A" transform="translate(12,20)"/>
<path d="M0 0 C3 1 3 1 4 3 C4.1875 6 4.1875 6 4 9 C3.34 9.66 2.68 10.32 2 11 C2.04125 10.29875 2.0825 9.5975 2.125 8.875 C1.98331668 5.61628372 1.13265314 3.0440053 0 0 Z " fill="#0E250B" transform="translate(22,14)"/>
<path d="M0 0 C-0.66 2.64 -1.32 5.28 -2 8 C-2.33 6.68 -2.66 5.36 -3 4 C-3.99 3.67 -4.98 3.34 -6 3 C-3.375 0 -3.375 0 0 0 Z " fill="#142B13" transform="translate(20,14)"/>
<path d="M0 0 C1.0625 1.8125 1.0625 1.8125 2 4 C1.67 4.99 1.34 5.98 1 7 C-0.32 6.67 -1.64 6.34 -3 6 C-2 3 -2 3 -1 2 C-0.67 1.34 -0.34 0.68 0 0 Z " fill="#0C0F30" transform="translate(11,8)"/>
<path d="M0 0 C0.66 0 1.32 0 2 0 C2 0.66 2 1.32 2 2 C1.34 2 0.68 2 0 2 C0 1.34 0 0.68 0 0 Z " fill="#120805" transform="translate(27,11)"/>
</svg>
