<?xml version="1.0" standalone="no"?>
<!DOCTYPE svg PUBLIC "-//W3C//DTD SVG 20010904//EN"
 "http://www.w3.org/TR/2001/REC-SVG-20010904/DTD/svg10.dtd">
<svg version="1.0" xmlns="http://www.w3.org/2000/svg"
 width="40.000000pt" height="40.000000pt" viewBox="0 0 40.000000 40.000000"
 preserveAspectRatio="xMidYMid meet">

<g transform="translate(0.000000,40.000000) scale(0.100000,-0.100000)"
fill="#000000" stroke="none">
<path d="M128 340 c-44 -24 -88 -93 -88 -140 0 -80 84 -160 168 -160 118 0
196 155 126 247 -55 72 -132 92 -206 53z m121 -71 c48 -10 81 -33 67 -46 -3
-3 -25 0 -48 7 -40 12 -123 16 -158 8 -26 -5 -16 26 10 33 38 11 74 10 129 -2z
m16 -63 c19 -8 35 -20 35 -25 0 -14 -12 -14 -47 0 -15 6 -56 11 -90 11 -58 0
-81 9 -50 21 26 11 119 6 152 -7z m-1 -55 c26 -22 8 -31 -31 -15 -25 11 -51
14 -80 9 -40 -6 -53 1 -35 19 11 12 128 2 146 -13z"/>
</g>
</svg>
