<?xml version="1.0" standalone="no"?>
<!DOCTYPE svg PUBLIC "-//W3C//DTD SVG 20010904//EN"
 "http://www.w3.org/TR/2001/REC-SVG-20010904/DTD/svg10.dtd">
<svg version="1.0" xmlns="http://www.w3.org/2000/svg"
 width="40.000000pt" height="40.000000pt" viewBox="0 0 40.000000 40.000000"
 preserveAspectRatio="xMidYMid meet">

<g transform="translate(0.000000,40.000000) scale(0.100000,-0.100000)"
fill="#000000" stroke="none">
<path d="M130 241 l42 -60 -37 -45 c-21 -26 -33 -46 -29 -45 5 0 23 18 41 40
l32 40 27 -40 c21 -32 33 -41 55 -41 16 0 29 3 29 6 0 4 -16 29 -35 55 -19 27
-35 53 -35 57 0 5 16 27 36 50 19 23 31 42 26 42 -6 0 -25 -18 -42 -40 l-32
-40 -29 40 c-23 32 -36 40 -60 40 l-30 0 41 -59z m58 -17 c76 -106 86 -124 70
-124 -12 0 -138 169 -138 184 0 21 27 -3 68 -60z"/>
</g>
</svg>
