<?xml version="1.0" standalone="no"?>
<!DOCTYPE svg PUBLIC "-//W3C//DTD SVG 20010904//EN"
 "http://www.w3.org/TR/2001/REC-SVG-20010904/DTD/svg10.dtd">
<svg version="1.0" xmlns="http://www.w3.org/2000/svg"
 width="40.000000pt" height="40.000000pt" viewBox="0 0 40.000000 40.000000"
 preserveAspectRatio="xMidYMid meet">

<g transform="translate(0.000000,40.000000) scale(0.100000,-0.100000)"
fill="#000000" stroke="none">
<path d="M223 295 c-13 -9 -23 -25 -23 -36 0 -27 -29 -24 -74 6 -20 14 -39 25
-41 25 -2 0 -4 -21 -3 -46 0 -30 6 -48 15 -51 8 -3 12 -12 9 -19 -3 -7 4 -20
14 -27 23 -16 16 -27 -17 -27 -36 0 -27 -18 12 -26 86 -16 162 32 185 117 7
24 17 50 23 58 10 12 9 13 -2 6 -10 -6 -13 -4 -9 6 4 9 -1 15 -11 16 -9 1 -25
4 -36 7 -12 4 -29 0 -42 -9z"/>
</g>
</svg>
