<?xml version="1.0" standalone="no"?>
<!DOCTYPE svg PUBLIC "-//W3C//DTD SVG 20010904//EN"
 "http://www.w3.org/TR/2001/REC-SVG-20010904/DTD/svg10.dtd">
<svg version="1.0" xmlns="http://www.w3.org/2000/svg"
 width="40.000000pt" height="40.000000pt" viewBox="0 0 40.000000 40.000000"
 preserveAspectRatio="xMidYMid meet">

<g transform="translate(0.000000,40.000000) scale(0.100000,-0.100000)"
fill="#000000" stroke="none">
<path d="M73 313 c-28 -5 -38 -36 -37 -125 0 -98 1 -98 164 -98 98 0 140 4
147 13 16 20 24 125 13 167 -8 31 -16 39 -41 44 -34 7 -210 6 -246 -1z m137
-83 c22 -11 40 -22 40 -24 0 -5 -65 -46 -73 -46 -3 0 -7 20 -9 45 -2 25 -2 45
0 45 1 0 21 -9 42 -20z"/>
</g>
</svg>
