<?xml version="1.0" encoding="UTF-8"?>
<svg version="1.1" xmlns="http://www.w3.org/2000/svg" width="40" height="40">
<path d="M0 0 C1.24007813 -0.00386719 2.48015625 -0.00773438 3.7578125 -0.01171875 C5.70300781 0.00568359 5.70300781 0.00568359 7.6875 0.0234375 C8.98429687 0.01183594 10.28109375 0.00023437 11.6171875 -0.01171875 C12.85726563 -0.00785156 14.09734375 -0.00398437 15.375 0 C16.51324219 0.00338379 17.65148437 0.00676758 18.82421875 0.01025391 C21.6875 0.3984375 21.6875 0.3984375 23.55932617 1.67919922 C25.5711057 4.74497534 25.07391617 8.3563744 25 11.8984375 C25.00322266 12.67058594 25.00644531 13.44273438 25.00976562 14.23828125 C24.97273859 18.12275416 24.88538099 20.10161601 22.6875 23.3984375 C19.73828125 23.78662109 19.73828125 23.78662109 16 23.796875 C15.34169189 23.79974518 14.68338379 23.80261536 14.00512695 23.80557251 C12.61310974 23.80761426 11.22106391 23.80207652 9.82910156 23.78955078 C7.69531253 23.77349628 5.56341745 23.78939313 3.4296875 23.80859375 C2.07812081 23.80661133 0.7265553 23.80276769 -0.625 23.796875 C-1.85863281 23.79349121 -3.09226562 23.79010742 -4.36328125 23.78662109 C-5.33652344 23.65852051 -6.30976562 23.53041992 -7.3125 23.3984375 C-9.87462287 19.55525319 -9.64358539 16.35149795 -9.625 11.8984375 C-9.64111328 11.12628906 -9.65722656 10.35414062 -9.67382812 9.55859375 C-9.67868265 3.95646785 -9.67868265 3.95646785 -8.18432617 1.67919922 C-5.45163596 -0.19059246 -3.2879262 0.00977441 0 0 Z M4.6875 8.3984375 C4.6875 11.0384375 4.6875 13.6784375 4.6875 16.3984375 C6.9975 15.0784375 9.3075 13.7584375 11.6875 12.3984375 C8.59422105 9.42168291 8.59422105 9.42168291 4.6875 8.3984375 Z " fill="#151416" transform="translate(12.3125,7.6015625)"/>
<path d="M0 0 C1.63001953 0.01353516 1.63001953 0.01353516 3.29296875 0.02734375 C4.12441406 0.03894531 4.95585937 0.05054688 5.8125 0.0625 C5.8125 1.0525 5.8125 2.0425 5.8125 3.0625 C6.8025 3.0625 7.7925 3.0625 8.8125 3.0625 C8.93625 3.701875 9.06 4.34125 9.1875 5 C9.39375 5.680625 9.6 6.36125 9.8125 7.0625 C10.4725 7.3925 11.1325 7.7225 11.8125 8.0625 C10.8225 8.3925 9.8325 8.7225 8.8125 9.0625 C8.4825 8.7325 8.1525 8.4025 7.8125 8.0625 C7.4825 8.7225 7.1525 9.3825 6.8125 10.0625 C7.59625 10.165625 8.38 10.26875 9.1875 10.375 C11.8125 11.0625 11.8125 11.0625 13.8125 14.0625 C14.4725 14.3925 15.1325 14.7225 15.8125 15.0625 C15.4825 14.0725 15.1525 13.0825 14.8125 12.0625 C15.4725 12.0625 16.1325 12.0625 16.8125 12.0625 C16.8125 11.0725 16.8125 10.0825 16.8125 9.0625 C16.1525 9.0625 15.4925 9.0625 14.8125 9.0625 C15.1425 8.4025 15.4725 7.7425 15.8125 7.0625 C16.4725 7.3925 17.1325 7.7225 17.8125 8.0625 C17.9375 11.4375 17.9375 11.4375 17.8125 15.0625 C15.8125 17.0625 15.8125 17.0625 12.8125 17.1875 C11.8225 17.14625 10.8325 17.105 9.8125 17.0625 C9.1525 17.0625 8.4925 17.0625 7.8125 17.0625 C6.47466607 16.74771554 5.14046291 16.41662344 3.8125 16.0625 C4.1425 14.7425 4.4725 13.4225 4.8125 12.0625 C1.60913178 9.22875119 -0.96837253 8.5419463 -5.1875 8.0625 C-1.60350853 5.67317235 0.54445001 5.0625 4.8125 5.0625 C4.8125 3.7425 4.8125 2.4225 4.8125 1.0625 C3.8225 1.3925 2.8325 1.7225 1.8125 2.0625 C1.1525 1.7325 0.4925 1.4025 -0.1875 1.0625 C-0.8475 2.3825 -1.5075 3.7025 -2.1875 5.0625 C-2.1875 4.0725 -2.1875 3.0825 -2.1875 2.0625 C-4.1675 2.3925 -6.1475 2.7225 -8.1875 3.0625 C-8.5175 2.4025 -8.8475 1.7425 -9.1875 1.0625 C-5.90230525 -0.03256492 -3.45086585 -0.03710608 0 0 Z " fill="#191A0A" transform="translate(18.1875,7.9375)"/>
<path d="M0 0 C2.31 0.66 4.62 1.32 7 2 C7.33 4.31 7.66 6.62 8 9 C8.66 9 9.32 9 10 9 C9.25 14.75 9.25 14.75 7 17 C6.01 16.67 5.02 16.34 4 16 C4 15.34 4 14.68 4 14 C3.01 13.34 2.02 12.68 1 12 C0.67 11.67 0.34 11.34 0 11 C-0.66 10.67 -1.32 10.34 -2 10 C-2.33 10.99 -2.66 11.98 -3 13 C-3.33 11.68 -3.66 10.36 -4 9 C-2.68 8.67 -1.36 8.34 0 8 C0 7.01 0 6.02 0 5 C-0.66 4.67 -1.32 4.34 -2 4 C-1.34 4 -0.68 4 0 4 C-0.33 3.01 -0.66 2.02 -1 1 C-0.67 0.67 -0.34 0.34 0 0 Z " fill="#201319" transform="translate(10,14)"/>
<path d="M0 0 C1.32 0 2.64 0 4 0 C3.67 0.66 3.34 1.32 3 2 C3.804375 1.979375 4.60875 1.95875 5.4375 1.9375 C8 2 8 2 9 3 C9.33 2.34 9.66 1.68 10 1 C11.65 1 13.3 1 15 1 C15.33 2.65 15.66 4.3 16 6 C14.04200486 6.33531415 12.08359226 6.66819143 10.125 7 C9.03445312 7.185625 7.94390625 7.37125 6.8203125 7.5625 C4 8 4 8 2 8 C2 9.98 2 11.96 2 14 C1.34 14 0.68 14 0 14 C0 13.34 0 12.68 0 12 C-0.66 12 -1.32 12 -2 12 C-1.85962479 10.18706911 -1.71255111 8.3746557 -1.5625 6.5625 C-1.48128906 5.55316406 -1.40007813 4.54382813 -1.31640625 3.50390625 C-1 1 -1 1 0 0 Z " fill="#1F0D22" transform="translate(8,8)"/>
<path d="M0 0 C1.65 0 3.3 0 5 0 C4.67 0.66 4.34 1.32 4 2 C4.99 2.66 5.98 3.32 7 4 C6.67 4.99 6.34 5.98 6 7 C3.36 7 0.72 7 -2 7 C-2.33 5.35 -2.66 3.7 -3 2 C-2.01 2.99 -1.02 3.98 0 5 C0 3.35 0 1.7 0 0 Z " fill="#040D11" transform="translate(8,24)"/>
<path d="M0 0 C0 1.32 0 2.64 0 4 C-0.66 4 -1.32 4 -2 4 C-2 4.66 -2 5.32 -2 6 C-1.01 6.33 -0.02 6.66 1 7 C-0.98 7.33 -2.96 7.66 -5 8 C-5 7.34 -5 6.68 -5 6 C-5.99 5.67 -6.98 5.34 -8 5 C-8.33 5.99 -8.66 6.98 -9 8 C-9.33 6.68 -9.66 5.36 -10 4 C-8.71086513 3.32845067 -7.41859796 2.66291141 -6.125 2 C-5.40570312 1.62875 -4.68640625 1.2575 -3.9453125 0.875 C-2 0 -2 0 0 0 Z " fill="#211E06" transform="translate(16,19)"/>
<path d="M0 0 C1.43655854 -0.08131463 2.8744483 -0.13933559 4.3125 -0.1875 C5.51326172 -0.23970703 5.51326172 -0.23970703 6.73828125 -0.29296875 C9 0 9 0 10.79296875 1.32421875 C12 3 12 3 12 6 C11.34 6 10.68 6 10 6 C10 5.34 10 4.68 10 4 C9.1028125 4.2784375 9.1028125 4.2784375 8.1875 4.5625 C6 5 6 5 3 4 C3 3.01 3 2.02 3 1 C2.01 0.67 1.02 0.34 0 0 Z " fill="#151D15" transform="translate(25,8)"/>
<path d="M0 0 C1.63001953 0.01353516 1.63001953 0.01353516 3.29296875 0.02734375 C4.12441406 0.03894531 4.95585937 0.05054688 5.8125 0.0625 C5.8125 1.0525 5.8125 2.0425 5.8125 3.0625 C6.8025 3.3925 7.7925 3.7225 8.8125 4.0625 C7.4925 4.3925 6.1725 4.7225 4.8125 5.0625 C4.8125 3.7425 4.8125 2.4225 4.8125 1.0625 C3.8225 1.3925 2.8325 1.7225 1.8125 2.0625 C1.1525 1.7325 0.4925 1.4025 -0.1875 1.0625 C-0.8475 2.3825 -1.5075 3.7025 -2.1875 5.0625 C-2.1875 4.0725 -2.1875 3.0825 -2.1875 2.0625 C-4.1675 2.3925 -6.1475 2.7225 -8.1875 3.0625 C-8.5175 2.4025 -8.8475 1.7425 -9.1875 1.0625 C-5.90230525 -0.03256492 -3.45086585 -0.03710608 0 0 Z " fill="#132112" transform="translate(18.1875,7.9375)"/>
<path d="M0 0 C1.32 0.33 2.64 0.66 4 1 C4 1.99 4 2.98 4 4 C4.99 4 5.98 4 7 4 C7 5.98 7 7.96 7 10 C3.25 11.125 3.25 11.125 1 10 C1.33 9.01 1.66 8.02 2 7 C2.66 7 3.32 7 4 7 C3.67 5.68 3.34 4.36 3 3 C2.01 3 1.02 3 0 3 C0 2.01 0 1.02 0 0 Z " fill="#0C0D20" transform="translate(24,8)"/>
<path d="M0 0 C1.32 0.66 2.64 1.32 4 2 C3.34 2 2.68 2 2 2 C2.7734375 2.61875 2.7734375 2.61875 3.5625 3.25 C4.036875 3.8275 4.51125 4.405 5 5 C4.6875 7.1875 4.6875 7.1875 4 9 C3.34 8.67 2.68 8.34 2 8 C1.67 8.66 1.34 9.32 1 10 C-1.29404844 6.55892734 -1.26293056 5.03160191 -1 1 C-0.67 0.67 -0.34 0.34 0 0 Z " fill="#160E2C" transform="translate(4,21)"/>
<path d="M0 0 C1.32 0 2.64 0 4 0 C3 2 3 2 2 3 C1.92773498 4.85287502 1.9161878 6.70833878 1.9375 8.5625 C1.94652344 9.57441406 1.95554687 10.58632813 1.96484375 11.62890625 C1.97644531 12.41136719 1.98804688 13.19382812 2 14 C1.34 14 0.68 14 0 14 C0 13.34 0 12.68 0 12 C-0.66 12 -1.32 12 -2 12 C-1.85962479 10.18706911 -1.71255111 8.3746557 -1.5625 6.5625 C-1.48128906 5.55316406 -1.40007813 4.54382813 -1.31640625 3.50390625 C-1 1 -1 1 0 0 Z " fill="#12152F" transform="translate(8,8)"/>
<path d="M0 0 C1.98 0.99 3.96 1.98 6 3 C6 3.66 6 4.32 6 5 C3.36 5.33 0.72 5.66 -2 6 C-1.34 5.67 -0.68 5.34 0 5 C0 3.35 0 1.7 0 0 Z " fill="#152232" transform="translate(29,24)"/>
<path d="M0 0 C0.66 0 1.32 0 2 0 C1.25 5.75 1.25 5.75 -1 8 C-1.99 7.67 -2.98 7.34 -4 7 C-4.6875 4.9375 -4.6875 4.9375 -5 3 C-3.35 2.67 -1.7 2.34 0 2 C0 1.34 0 0.68 0 0 Z " fill="#25082E" transform="translate(18,23)"/>
<path d="M0 0 C1.5 1.3125 1.5 1.3125 3 3 C3 3.99 3 4.98 3 6 C2.01 5.67 1.02 5.34 0 5 C0 5.99 0 6.98 0 8 C-1.32 7.67 -2.64 7.34 -4 7 C-3.525625 6.401875 -3.05125 5.80375 -2.5625 5.1875 C-0.83534256 2.99617076 -0.83534256 2.99617076 0 0 Z " fill="#0A3117" transform="translate(20,23)"/>
<path d="M0 0 C0.66 0 1.32 0 2 0 C2 0.99 2 1.98 2 3 C3.32 3 4.64 3 6 3 C5.67 4.32 5.34 5.64 5 7 C2.5625 6.25 2.5625 6.25 0 5 C-0.875 2.9375 -0.875 2.9375 -1 1 C-0.67 0.67 -0.34 0.34 0 0 Z " fill="#250A2F" transform="translate(21,21)"/>
<path d="M0 0 C0.33 0.66 0.66 1.32 1 2 C1.66 2 2.32 2 3 2 C3 5.3 3 8.6 3 12 C1 9 1 9 1.375 6.3125 C1.58125 5.549375 1.7875 4.78625 2 4 C1.01 3.67 0.02 3.34 -1 3 C-0.67 2.01 -0.34 1.02 0 0 Z " fill="#311238" transform="translate(34,12)"/>
<path d="M0 0 C0.99 0.99 1.98 1.98 3 3 C3.99 2.67 4.98 2.34 6 2 C6.66 2.66 7.32 3.32 8 4 C5.69 4.33 3.38 4.66 1 5 C0.67 3.35 0.34 1.7 0 0 Z " fill="#1D190E" transform="translate(5,26)"/>
</svg>
