<?xml version="1.0" standalone="no"?>
<!DOCTYPE svg PUBLIC "-//W3C//DTD SVG 20010904//EN"
 "http://www.w3.org/TR/2001/REC-SVG-20010904/DTD/svg10.dtd">
<svg version="1.0" xmlns="http://www.w3.org/2000/svg"
 width="1120.000000pt" height="1120.000000pt" viewBox="0 0 1120.000000 1120.000000"
 preserveAspectRatio="xMidYMid meet">

<g transform="translate(0.000000,1120.000000) scale(0.100000,-0.100000)"
fill="#000000" stroke="none">
<path d="M6170 9837 c-18 -9 -25 -21 -25 -42 0 -25 4 -31 27 -33 28 -3 88 22
88 38 0 12 -41 50 -54 50 -6 0 -22 -6 -36 -13z"/>
<path d="M5850 9821 c-20 -6 -24 -13 -22 -34 2 -18 -2 -27 -12 -27 -8 0 -16 5
-18 11 -7 20 -71 27 -102 11 -24 -11 -40 -12 -80 -4 -61 13 -427 18 -474 7
-25 -5 -42 -20 -65 -56 -33 -50 -57 -63 -57 -31 0 30 -21 42 -75 42 -48 0 -79
-11 -81 -27 0 -4 -6 -20 -12 -35 -9 -23 -18 -27 -59 -30 -45 -3 -48 -5 -58
-40 -16 -58 -26 -64 -86 -50 -29 7 -53 11 -53 10 -19 -35 -54 -78 -64 -78 -7
0 -25 6 -40 14 -15 8 -44 17 -64 21 -34 7 -38 5 -44 -21 -4 -16 -2 -34 5 -43
56 -77 64 -106 31 -116 -26 -8 -36 -1 -56 41 -20 41 -51 52 -111 36 -24 -7
-60 -12 -81 -12 -21 0 -56 -11 -82 -26 -25 -14 -57 -27 -72 -29 -26 -3 -28 -1
-28 31 0 21 -5 34 -13 34 -16 0 -102 -53 -111 -69 -4 -6 -19 -11 -33 -11 -17
0 -37 -12 -57 -35 -17 -19 -56 -47 -86 -63 -60 -32 -227 -127 -328 -186 -35
-21 -78 -51 -96 -66 -18 -16 -71 -55 -117 -86 -46 -31 -122 -86 -169 -123 -46
-36 -103 -79 -126 -96 -152 -109 -341 -291 -410 -393 -72 -108 -184 -286 -184
-294 0 -4 -13 -29 -29 -56 -15 -26 -54 -100 -87 -163 -32 -63 -70 -134 -86
-158 -15 -24 -35 -67 -43 -95 -9 -28 -23 -63 -31 -78 -8 -15 -14 -33 -12 -40
5 -26 -13 -88 -26 -88 -7 0 -20 -8 -29 -17 -24 -27 -106 -193 -118 -238 -6
-22 -25 -56 -43 -75 -39 -41 -78 -159 -96 -285 -7 -44 -18 -109 -25 -145 -13
-59 -12 -66 3 -78 23 -18 28 -165 12 -397 -15 -228 -15 -310 -2 -625 6 -140
11 -328 12 -416 0 -152 -2 -166 -29 -250 -16 -49 -28 -91 -25 -93 2 -2 10 2
19 9 8 7 15 9 15 6 0 -4 6 -2 13 4 6 6 41 32 76 57 57 42 68 56 108 139 49
103 65 114 131 91 67 -23 128 -74 325 -270 170 -168 199 -202 240 -277 25 -47
53 -115 62 -151 10 -41 67 -167 147 -325 72 -143 142 -281 155 -309 35 -70 74
-227 76 -310 l2 -70 -34 -1 c-26 0 -36 -5 -43 -23 -12 -34 23 -144 59 -183 11
-13 37 -72 58 -133 21 -60 48 -131 61 -157 32 -64 32 -124 -1 -169 -14 -19
-50 -71 -80 -117 l-54 -82 42 -59 c23 -32 66 -87 95 -122 29 -35 66 -80 82
-100 22 -27 43 -40 87 -52 33 -10 71 -17 85 -17 42 0 217 -58 277 -92 79 -44
325 -194 391 -238 57 -38 325 -192 395 -228 76 -38 253 -93 278 -86 14 3 57
-3 95 -14 77 -22 76 -22 262 32 30 9 89 22 131 30 42 8 93 22 114 30 43 18
193 37 300 37 39 0 85 3 104 7 l34 7 2 70 c5 164 177 554 313 709 33 38 43 88
20 102 -6 4 -54 8 -107 10 -161 4 -260 38 -280 96 -14 40 -2 65 63 126 58 55
124 91 166 92 59 0 324 96 468 169 82 41 224 133 271 175 38 34 213 235 262
301 59 79 113 194 134 285 39 167 81 231 208 317 123 83 181 175 175 281 -3
48 -13 79 -63 175 -52 103 -59 123 -57 168 1 28 5 55 8 60 7 13 69 11 115 -2
53 -16 82 -52 112 -139 47 -137 66 -183 89 -208 20 -21 29 -23 68 -19 25 3 68
12 95 21 28 8 104 29 170 47 126 34 222 67 284 99 139 71 276 251 310 409 14
65 14 151 0 188 -12 33 -181 208 -221 229 -55 29 -89 19 -150 -43 -31 -32 -59
-68 -63 -80 -3 -12 -24 -39 -46 -60 -21 -20 -41 -44 -44 -53 -7 -21 -84 -70
-111 -70 -12 0 -38 -7 -59 -16 -21 -8 -41 -12 -45 -7 -17 20 -71 196 -68 225
5 55 28 57 94 6 97 -74 134 -86 154 -48 15 27 7 38 -80 116 -41 37 -100 90
-130 118 -31 28 -76 66 -100 85 -25 19 -63 56 -85 83 -44 53 -55 64 -101 102
-51 42 -61 110 -21 156 9 11 17 25 17 30 0 6 5 10 10 10 6 0 8 -10 4 -24 -4
-19 7 -37 63 -97 67 -73 175 -174 254 -236 21 -17 59 -58 83 -90 43 -59 108
-118 155 -143 22 -11 27 -10 43 10 10 12 18 28 18 36 0 21 88 104 127 120 56
24 93 10 168 -62 36 -35 73 -64 81 -64 7 0 47 -33 87 -72 56 -56 75 -81 80
-108 9 -56 -1 -200 -18 -263 -8 -32 -15 -74 -15 -94 0 -39 -16 -63 -169 -253
-77 -96 -151 -160 -184 -160 -7 0 -22 -6 -33 -14 -11 -8 -38 -18 -60 -21 -21
-4 -106 -27 -189 -50 -229 -66 -310 -81 -349 -67 -74 27 -108 13 -140 -58 -46
-103 -104 -186 -156 -228 -105 -84 -180 -154 -195 -181 -8 -16 -13 -46 -12
-68 0 -22 -8 -59 -21 -86 -12 -26 -22 -59 -22 -73 0 -43 -246 -398 -336 -487
-16 -15 -51 -41 -79 -57 -27 -16 -104 -65 -170 -108 -66 -42 -146 -92 -177
-110 -61 -34 -256 -92 -311 -92 -65 0 -237 -60 -237 -82 0 -5 17 -16 38 -25
49 -21 262 -27 277 -7 8 11 13 11 29 -1 18 -13 18 -15 -4 -50 -25 -40 -25 -39
22 -64 48 -26 51 -74 6 -134 -142 -192 -201 -291 -252 -425 -20 -52 -36 -99
-36 -107 0 -7 -9 -41 -20 -76 -26 -80 -23 -116 11 -142 25 -18 33 -18 110 -8
46 6 161 18 254 26 251 23 393 50 590 111 81 26 394 177 495 240 30 19 125 77
210 129 256 155 366 226 470 305 431 325 533 422 746 705 185 246 235 332 299
512 24 67 57 148 74 180 96 179 106 204 105 278 -2 112 -16 160 -97 325 -82
168 -208 532 -207 601 0 14 -6 48 -14 75 -8 27 -17 67 -21 88 -17 98 -137 266
-237 333 -100 66 -180 76 -292 37 -52 -19 -100 -9 -114 22 -6 13 -23 26 -37
29 -14 3 -36 7 -49 10 -13 3 -47 21 -76 41 -29 20 -74 46 -99 57 -25 10 -53
26 -62 34 -15 12 -32 15 -97 13 -12 -1 -41 14 -65 33 -81 67 -222 138 -370
187 -123 41 -164 50 -275 60 -150 13 -203 4 -230 -39 -9 -14 -19 -28 -23 -31
-10 -8 -49 -100 -65 -151 -10 -33 -30 -61 -69 -98 -63 -60 -80 -61 -142 -14
-32 25 -47 28 -196 39 -89 7 -192 13 -228 14 -46 0 -70 5 -79 15 -13 16 -44
12 -89 -11 -14 -8 -47 -14 -72 -14 -25 0 -67 -7 -93 -16 -55 -19 -161 -15
-211 8 -17 7 -73 45 -125 84 -136 101 -169 122 -222 138 -58 17 -129 5 -170
-29 -20 -17 -46 -25 -95 -30 -38 -3 -87 -10 -110 -15 -23 -6 -78 -10 -122 -10
-118 0 -168 23 -258 116 -40 41 -73 80 -73 86 0 11 -24 66 -64 146 -25 51 -75
82 -133 82 -21 0 -75 -7 -119 -16 -56 -11 -91 -13 -109 -7 -39 13 -195 -9
-210 -30 -6 -8 -27 -18 -47 -22 -31 -6 -38 -4 -48 15 -7 12 -40 35 -73 52 -34
16 -73 35 -87 42 -50 27 -96 37 -124 26 -15 -5 -59 -10 -97 -10 l-70 0 -78 60
c-43 33 -82 67 -85 76 -22 58 21 273 76 379 121 232 142 303 198 681 11 68 63
226 89 264 9 14 23 37 30 52 14 27 105 113 211 198 30 24 71 60 90 80 19 19
67 64 107 99 45 39 81 81 95 110 12 25 38 64 58 86 20 22 48 65 62 95 14 30
41 69 59 86 19 18 50 57 69 89 26 43 52 68 105 103 39 25 113 89 166 142 52
53 113 109 135 125 21 16 107 97 189 180 111 112 197 186 329 286 160 119 181
139 195 177 8 23 18 41 21 40 10 -4 140 -155 193 -224 79 -101 113 -230 83
-313 -29 -80 -15 -219 39 -401 14 -46 25 -101 25 -122 0 -21 9 -64 19 -96 11
-31 36 -113 56 -181 20 -68 43 -138 52 -155 18 -36 72 -96 87 -96 5 0 17 -6
25 -13 24 -21 97 -40 122 -34 13 3 29 1 36 -5 16 -13 66 -41 113 -64 86 -41
485 -354 680 -534 68 -63 135 -124 149 -135 79 -66 87 -92 44 -138 -27 -27
-28 -33 -27 -120 0 -55 7 -115 17 -149 21 -69 22 -141 3 -157 -8 -7 -17 -23
-20 -37 -4 -13 -14 -33 -24 -44 -43 -47 -46 -54 -43 -104 5 -111 58 -193 191
-294 30 -24 74 -58 98 -77 24 -19 55 -38 69 -41 36 -10 325 -202 399 -266 35
-31 113 -80 185 -117 68 -35 134 -72 147 -82 13 -10 47 -25 75 -35 29 -9 67
-28 86 -42 46 -34 102 -39 178 -13 83 28 111 27 183 -8 171 -83 300 -218 335
-351 7 -28 18 -56 23 -63 5 -7 12 -25 15 -42 9 -44 19 -106 22 -135 4 -40 33
-151 53 -205 10 -27 33 -86 50 -130 17 -44 50 -132 73 -195 71 -196 136 -300
189 -300 23 0 34 15 54 77 23 71 84 204 129 284 37 66 48 104 68 232 5 37 17
86 25 109 8 22 14 77 14 122 0 49 6 101 16 129 l16 47 -31 39 c-17 21 -31 43
-31 49 0 5 -6 15 -14 21 -15 12 -19 71 -6 71 10 0 23 160 25 305 0 66 7 181
13 255 26 285 27 388 3 501 -12 57 -30 133 -40 169 -27 97 -52 198 -66 265 -6
33 -26 105 -43 160 -16 55 -47 163 -67 240 -20 77 -50 170 -66 207 -16 36 -29
71 -29 76 0 5 -13 27 -29 49 -16 22 -47 78 -69 124 -40 83 -130 196 -312 394
-36 39 -96 106 -133 150 -37 44 -127 134 -200 200 -73 66 -181 169 -242 230
-60 61 -145 135 -188 164 -43 29 -122 85 -175 125 -199 149 -315 215 -707 401
-167 80 -340 155 -354 155 -6 0 -34 12 -61 26 -39 20 -49 31 -45 44 5 14 -1
19 -30 22 -19 2 -36 0 -38 -5 -1 -5 -25 -11 -53 -13 -38 -3 -67 3 -115 21 -70
28 -175 46 -284 50 -95 3 -165 17 -209 43 -28 17 -46 20 -79 16 -40 -6 -44 -4
-75 35 -34 42 -39 44 -82 32z m-2220 -895 c0 -17 -39 -52 -67 -61 -17 -4 -23
-2 -23 9 0 29 14 49 44 61 33 14 46 12 46 -9z m3183 -3710 c26 -8 69 -30 96
-50 28 -19 74 -42 103 -51 34 -9 85 -38 138 -78 125 -94 117 -91 283 -95 l147
-4 0 -34 c0 -41 -15 -50 -112 -65 -40 -6 -98 -19 -128 -27 -57 -17 -108 -17
-124 -1 -6 5 -22 9 -36 9 -17 0 -43 15 -71 40 -24 22 -47 40 -51 40 -4 0 -20
19 -36 43 -69 99 -133 141 -241 155 -88 12 -120 6 -127 -27 -14 -56 -50 -75
-114 -59 -34 9 -53 8 -94 -5 -116 -37 -127 -39 -194 -31 -37 4 -84 13 -106 20
-21 8 -55 14 -76 14 -51 0 -74 26 -59 68 7 20 21 34 41 41 39 14 125 14 133 1
3 -5 14 -10 23 -10 9 -1 35 -9 57 -20 52 -25 51 -25 123 10 34 17 66 30 71 30
5 0 22 11 38 24 42 35 72 49 133 62 75 17 128 17 183 0z m-2464 -2976 c65 -32
71 -41 60 -86 -18 -64 -79 -108 -181 -129 -31 -6 -58 -30 -58 -51 0 -15 69
-54 96 -54 10 0 25 7 35 16 14 13 27 15 56 9 49 -11 59 -8 102 21 20 13 43 24
52 24 19 0 45 35 54 73 7 25 5 26 -41 29 -39 2 -50 7 -52 22 -5 22 33 55 61
56 11 0 31 -6 45 -14 15 -8 49 -18 76 -21 60 -8 106 -48 106 -92 0 -39 -42
-122 -82 -160 -43 -42 -124 -63 -258 -69 -58 -2 -106 -9 -108 -14 -2 -6 -18
-10 -36 -10 -34 0 -86 45 -123 106 -10 17 -32 43 -49 58 -36 30 -84 138 -84
189 0 21 10 43 29 63 52 57 69 64 159 64 72 0 90 -4 141 -30z"/>
<path d="M4720 9755 c-7 -9 -11 -18 -8 -20 7 -8 78 15 78 25 0 16 -56 11 -70
-5z"/>
<path d="M4592 9696 c-20 -11 -21 -14 -8 -25 19 -16 58 -4 54 17 -4 21 -18 24
-46 8z"/>
<path d="M4424 9655 c-19 -15 -19 -15 0 -30 24 -19 37 -19 61 -1 24 17 13 46
-18 46 -13 0 -32 -7 -43 -15z"/>
<path d="M4161 9544 c-30 -15 -48 -44 -28 -44 14 0 64 47 56 53 -2 2 -15 -2
-28 -9z"/>
<path d="M5329 9502 c-198 -126 -649 -568 -666 -654 -3 -15 -11 -28 -18 -28
-7 0 -15 -7 -19 -15 -3 -8 -10 -15 -16 -15 -6 0 -25 -15 -44 -33 -18 -18 -52
-38 -75 -45 -51 -16 -148 -87 -190 -141 -43 -53 -151 -219 -161 -246 -24 -64
-258 -305 -395 -407 -173 -130 -223 -198 -265 -361 -10 -42 -22 -112 -26 -154
-4 -43 -10 -85 -15 -94 -5 -9 -11 -49 -14 -89 -6 -80 -18 -113 -110 -310 -115
-246 -124 -270 -132 -366 l-6 -72 32 -7 c18 -4 78 -8 134 -9 95 -2 109 -5 201
-45 54 -23 109 -49 122 -58 20 -13 52 -14 226 -8 112 3 227 11 257 17 39 7 71
7 120 -2 69 -13 180 -62 194 -86 5 -8 11 -13 15 -10 4 2 8 -9 9 -25 2 -30 56
-140 83 -170 8 -10 26 -33 40 -52 14 -20 41 -43 60 -51 55 -23 157 -29 221
-12 30 8 79 18 108 22 29 4 58 12 64 18 52 47 74 55 146 51 87 -5 111 -17 231
-115 173 -140 173 -140 256 -140 53 0 104 9 181 31 101 29 111 30 178 20 38
-6 168 -18 288 -27 294 -21 322 -14 360 90 7 17 27 59 46 93 36 63 65 85 151
112 48 15 161 21 181 10 9 -4 50 -14 90 -20 41 -6 78 -15 83 -20 13 -12 46
-11 46 1 0 6 -8 14 -17 17 -10 4 -20 10 -23 13 -3 4 -25 17 -50 30 -25 12 -93
70 -151 129 -105 105 -107 107 -148 213 -22 58 -41 117 -41 130 0 24 22 64 47
85 21 16 45 185 37 253 -8 70 -11 100 -19 180 -5 58 -4 69 15 93 12 15 17 27
11 27 -6 0 -11 9 -11 19 0 18 -61 81 -78 81 -5 0 -37 25 -72 55 -36 30 -70 55
-76 55 -5 0 -35 22 -65 48 -29 26 -81 69 -114 94 -33 25 -97 80 -142 121 -45
41 -131 107 -189 146 -87 58 -118 73 -163 80 -31 5 -78 16 -106 26 -27 10 -63
23 -80 28 -33 12 -109 87 -129 127 -7 14 -25 70 -39 125 -15 55 -36 134 -47
175 -11 41 -32 120 -45 175 -14 55 -34 130 -45 167 -10 37 -29 128 -41 202
-20 117 -21 143 -11 181 24 91 -16 295 -70 353 -28 29 -55 28 -109 -6z"/>
<path d="M9740 5656 c0 -22 21 -76 30 -76 8 0 8 5 -5 63 -5 27 -25 38 -25 13z"/>
<path d="M9780 5528 c0 -13 -9 -43 -21 -67 -19 -43 -19 -78 0 -67 15 10 42
144 30 152 -5 3 -9 -5 -9 -18z"/>
<path d="M1430 5220 c0 -19 56 -67 66 -57 7 7 -35 65 -53 71 -8 3 -13 -2 -13
-14z"/>
<path d="M1943 4853 c-4 -10 -12 -22 -20 -26 -7 -4 -13 -14 -13 -21 0 -7 -18
-32 -40 -56 -30 -33 -40 -52 -40 -77 0 -45 -21 -82 -64 -116 -71 -55 -81 -112
-59 -332 15 -139 16 -144 88 -290 35 -71 72 -152 83 -180 13 -35 25 -51 41
-55 22 -5 36 -25 94 -135 12 -22 40 -62 63 -90 22 -27 58 -77 80 -110 21 -32
58 -80 82 -105 24 -25 52 -61 63 -80 40 -71 55 -90 104 -128 84 -65 213 -191
236 -230 49 -82 76 -120 132 -182 32 -36 65 -73 73 -83 12 -14 23 -17 42 -12
32 8 40 19 47 65 3 19 12 56 20 82 15 45 14 50 -11 125 -60 179 -95 258 -127
285 -29 24 -32 32 -32 85 0 45 8 75 34 131 24 53 31 81 27 100 -4 15 -13 57
-21 94 -8 37 -19 75 -25 85 -5 10 -20 46 -34 80 -13 34 -50 106 -83 160 -32
54 -69 129 -83 167 -24 67 -26 69 -77 88 -29 11 -53 23 -53 27 0 4 11 18 25
31 30 28 28 45 -18 160 -41 104 -72 145 -216 295 -69 72 -152 161 -184 198
-51 59 -63 67 -93 67 -24 0 -37 -5 -41 -17z"/>
<path d="M1581 4626 c-14 -55 -14 -93 -1 -101 14 -8 50 13 50 30 0 7 4 15 9
17 5 2 11 16 13 32 2 22 -1 29 -17 32 -11 1 -25 10 -31 19 -10 13 -13 8 -23
-29z"/>
<path d="M9352 3828 c-7 -7 -12 -17 -12 -23 0 -6 -20 -57 -45 -114 -26 -57
-44 -105 -41 -108 7 -7 51 75 72 132 9 28 21 55 24 60 8 11 22 65 17 65 -2 0
-8 -5 -15 -12z"/>
</g>
</svg>
