<?xml version="1.0" standalone="no"?>
<!DOCTYPE svg PUBLIC "-//W3C//DTD SVG 20010904//EN"
 "http://www.w3.org/TR/2001/REC-SVG-20010904/DTD/svg10.dtd">
<svg version="1.0" xmlns="http://www.w3.org/2000/svg"
 width="1120.000000pt" height="1120.000000pt" viewBox="0 0 1120.000000 1120.000000"
 preserveAspectRatio="xMidYMid meet">

<g transform="translate(0.000000,1120.000000) scale(0.100000,-0.100000)"
fill="#000000" stroke="none">
<path d="M11181 11178 c1 -13 5 -36 9 -53 7 -26 8 -22 9 23 0 29 -3 52 -9 52
-5 0 -9 -10 -9 -22z"/>
<path d="M5380 9633 c-13 -3 -33 -11 -43 -18 -17 -12 -17 -13 0 -20 10 -3 36
-8 58 -11 93 -10 104 -17 278 -179 147 -137 233 -274 243 -388 9 -98 -12 -145
-156 -346 -68 -96 -87 -146 -71 -194 14 -41 119 -118 265 -196 58 -31 121 -68
139 -82 32 -26 119 -186 131 -242 12 -52 95 -128 362 -332 43 -33 124 -103
180 -155 55 -52 133 -115 173 -140 146 -90 297 -194 362 -248 139 -113 182
-206 263 -557 9 -38 20 -73 25 -78 5 -5 39 -12 77 -17 75 -9 80 -14 134 -106
65 -111 91 -295 96 -674 4 -252 10 -369 30 -582 3 -32 0 -111 -6 -175 -7 -65
-15 -158 -19 -208 -12 -150 -83 -287 -260 -506 -61 -75 -83 -105 -158 -214
-36 -52 -106 -215 -123 -285 -12 -51 -65 -208 -143 -430 -34 -97 -93 -237
-107 -255 -4 -5 -22 -44 -39 -85 -18 -41 -38 -81 -45 -90 -8 -8 -24 -35 -38
-60 -61 -116 -150 -219 -216 -252 -45 -22 -60 -23 -362 -30 -694 -16 -692 -16
-810 -55 -103 -34 -108 -34 -255 -32 -173 2 -220 -3 -330 -39 -53 -16 -119
-28 -195 -33 -164 -12 -262 -24 -285 -37 -105 -57 -272 -132 -295 -132 -42 0
-164 44 -226 82 -127 76 -262 227 -439 488 -150 221 -170 277 -145 410 4 25
22 133 39 240 18 107 40 229 50 270 11 41 21 109 25 151 3 42 10 87 15 100 13
36 61 79 87 79 40 0 107 -60 128 -115 66 -175 139 -309 243 -450 41 -55 95
-142 121 -193 51 -102 109 -166 263 -287 189 -149 203 -156 369 -203 33 -10
38 -49 14 -119 -20 -60 -13 -90 31 -119 33 -22 102 -20 134 4 33 23 81 117 81
158 0 29 -5 34 -66 64 -36 17 -82 34 -103 37 -51 9 -147 93 -155 138 -5 27
-15 37 -49 53 -23 10 -55 22 -70 26 -33 8 -125 99 -182 180 -22 32 -59 84 -82
116 -23 33 -56 87 -74 122 -40 79 -37 117 20 312 48 162 46 183 -20 240 -55
46 -179 96 -269 108 -64 8 -89 18 -166 64 -123 73 -144 100 -144 192 0 36 13
104 35 181 25 86 35 143 35 191 0 79 -8 89 -88 110 -55 14 -112 66 -147 133
-25 48 -26 55 -16 95 10 36 19 46 49 59 58 24 144 28 192 9 22 -9 60 -16 85
-16 55 0 84 -11 127 -49 20 -17 38 -27 42 -23 4 4 65 7 134 7 146 0 167 8 183
70 6 22 16 46 21 53 8 9 -2 25 -41 62 -45 43 -51 54 -51 89 0 63 36 144 120
270 63 94 104 141 218 248 144 136 155 152 221 306 45 105 148 196 326 286
143 72 173 92 200 137 30 48 30 67 5 236 -41 271 -22 363 70 341 25 -6 88 -47
103 -67 21 -30 40 -124 48 -239 9 -139 18 -167 52 -167 12 0 35 -7 50 -15 38
-19 160 -40 327 -56 148 -13 202 -29 356 -105 51 -24 111 -48 135 -52 63 -10
119 -4 119 14 0 8 4 14 9 14 19 0 70 158 101 310 33 163 35 245 5 316 -17 41
-117 128 -165 144 -52 17 -159 1 -296 -46 -96 -33 -184 -44 -184 -25 0 5 -15
14 -33 20 -49 16 -68 46 -74 110 -5 48 -1 65 21 110 24 47 30 53 55 49 27 -4
27 -4 39 84 10 75 10 94 -3 125 l-15 36 50 65 c51 66 53 72 50 132 -4 75 -113
239 -159 240 -8 0 -19 6 -25 14 -6 8 -28 18 -48 21 -35 7 -38 5 -44 -21 -4
-16 -16 -35 -26 -42 -21 -16 -20 -21 28 -177 48 -151 44 -141 53 -127 4 8 19
-13 41 -56 18 -37 36 -69 41 -72 11 -7 18 -116 8 -131 -5 -9 -39 19 -108 87
-111 110 -147 172 -158 266 -3 29 -11 76 -18 104 -8 29 -11 70 -8 91 4 34 1
45 -24 74 -16 19 -51 66 -78 104 -27 39 -53 72 -57 73 -4 2 -8 10 -8 17 0 8
-14 24 -31 36 l-31 21 -56 -27 c-31 -15 -75 -40 -97 -55 -44 -30 -126 -64
-250 -105 -152 -50 -498 -93 -650 -81 -49 4 -113 18 -165 37 -47 17 -117 38
-155 48 -39 9 -97 30 -130 45 -33 15 -89 31 -125 35 -36 5 -82 18 -103 30 -47
26 -77 27 -84 2 -3 -11 -17 -22 -32 -26 -48 -10 -223 12 -303 39 -72 25 -87
26 -280 26 -112 0 -223 -5 -248 -11 -25 -6 -56 -13 -70 -14 -68 -9 -107 -19
-124 -34 -10 -9 -20 -15 -22 -13 -13 8 -56 -15 -88 -47 -44 -45 -52 -60 -203
-356 -157 -307 -199 -394 -277 -562 -37 -79 -111 -229 -165 -335 -54 -106
-104 -209 -111 -228 -7 -19 -19 -48 -26 -65 -27 -64 -35 -117 -44 -295 -18
-367 -6 -1241 25 -1810 13 -244 61 -591 97 -700 50 -153 137 -309 304 -545 51
-71 122 -177 158 -235 63 -102 165 -213 297 -326 59 -50 216 -226 338 -379
193 -242 294 -360 334 -391 26 -20 101 -54 192 -87 131 -47 268 -116 354 -176
14 -10 73 -42 131 -71 58 -30 137 -72 175 -95 81 -49 261 -148 338 -187 35
-18 115 -39 232 -63 159 -32 192 -36 285 -32 116 6 207 19 290 42 190 52 219
56 475 61 253 5 506 30 850 85 266 43 535 140 740 268 33 21 161 98 285 172
217 129 403 261 674 477 246 196 371 323 506 513 30 42 88 124 128 181 86 121
157 249 166 298 3 19 17 57 31 84 14 27 25 56 25 63 0 32 162 327 216 393 6 8
56 92 111 185 225 387 289 658 249 1066 -18 184 -21 473 -7 577 32 231 32 237
21 382 -11 149 -42 326 -84 472 -13 46 -33 122 -45 171 -36 151 -59 251 -66
287 -4 19 -15 55 -25 80 -10 25 -37 95 -60 155 -115 296 -234 474 -502 752
-451 467 -796 753 -1197 993 -462 276 -833 416 -1376 519 -143 27 -300 54
-350 61 -93 12 -571 23 -615 13z"/>
<path d="M5006 9569 c-135 -30 -365 -117 -429 -162 -16 -11 -43 -23 -60 -27
-89 -22 -219 -65 -273 -91 -34 -16 -72 -29 -86 -29 -35 0 -176 -52 -271 -101
-22 -10 -43 -19 -48 -19 -6 0 -33 -15 -62 -33 -29 -18 -104 -61 -167 -94 -283
-149 -454 -255 -639 -396 -36 -27 -76 -53 -90 -59 -70 -26 -136 -97 -113 -120
12 -12 165 9 342 45 70 14 96 26 149 66 29 21 45 26 95 26 54 0 72 -6 150 -49
60 -32 104 -49 137 -52 133 -12 255 -35 335 -64 372 -131 394 -137 514 -144
187 -11 505 25 559 63 14 10 51 28 82 39 31 11 104 44 163 71 111 53 145 61
166 36 15 -18 47 -19 87 -4 38 14 43 25 43 101 0 56 5 76 34 131 19 36 40 84
46 108 7 24 30 77 52 117 35 64 40 80 36 122 -7 75 -51 134 -162 222 -78 60
-110 79 -157 91 -81 20 -118 48 -159 120 -19 33 -46 69 -60 79 -35 25 -120 28
-214 7z m504 -899 c0 -11 -6 -20 -13 -20 -19 0 -27 10 -20 26 8 21 33 17 33
-6z"/>
<path d="M6209 7758 c-5 -52 -10 -76 -25 -112 -13 -33 -15 -68 -13 -180 4
-129 3 -139 -16 -150 -23 -13 -49 -36 -44 -39 2 -1 14 -10 26 -20 20 -18 23
-18 70 6 71 36 93 39 263 38 143 -1 157 -3 185 -23 20 -15 49 -23 87 -26 54
-4 58 -3 58 17 0 14 -6 21 -19 21 -11 0 -26 8 -33 18 -7 9 -26 26 -42 36 -16
10 -62 52 -102 92 -71 71 -178 155 -259 204 -48 29 -61 43 -81 93 -16 36 -53
53 -55 25z"/>
<path d="M6819 7258 c-2 -15 -2 -8 15 -178 15 -152 14 -245 -3 -340 -19 -101
-91 -362 -110 -393 -24 -42 -91 -77 -146 -77 -69 0 -203 27 -350 70 -227 67
-242 70 -386 90 -177 25 -205 32 -257 71 -58 42 -77 35 -150 -57 -65 -82 -108
-117 -199 -166 -133 -71 -191 -116 -243 -191 -28 -40 -60 -83 -70 -97 -11 -13
-20 -36 -20 -50 0 -47 -76 -143 -271 -345 -91 -93 -135 -163 -184 -290 -15
-38 -40 -89 -56 -112 l-28 -43 25 0 c19 0 28 -8 40 -36 14 -33 14 -44 -1 -113
-22 -98 -38 -124 -93 -151 -34 -17 -60 -22 -112 -21 -74 1 -123 18 -185 62
-29 20 -47 26 -67 22 -66 -13 -106 -104 -93 -209 5 -40 0 -93 -16 -186 -20
-112 -21 -139 -12 -195 14 -82 43 -114 152 -171 97 -50 247 -102 294 -102 49
0 86 -16 124 -52 64 -61 65 -113 12 -318 -25 -96 -29 -126 -24 -180 8 -78 48
-186 103 -278 55 -91 84 -120 188 -187 73 -48 98 -58 144 -62 90 -9 100 1 100
100 0 45 -5 110 -10 145 -10 57 -9 66 10 93 15 20 30 29 48 29 40 0 124 -61
183 -133 29 -34 69 -75 90 -90 21 -15 41 -37 44 -47 13 -40 41 -27 160 73 41
34 64 34 90 -1 24 -33 31 -141 17 -277 -5 -49 -6 -97 -1 -106 4 -9 36 -28 69
-43 34 -16 80 -46 101 -69 35 -35 45 -40 80 -39 23 1 44 4 48 6 33 21 356 27
608 12 l152 -9 44 27 c64 37 121 106 148 179 12 34 53 123 90 197 37 74 81
173 98 219 17 46 46 111 64 145 30 54 117 300 117 330 0 6 9 27 19 47 11 20
26 60 35 89 33 110 191 344 336 496 22 23 62 87 91 148 46 95 53 119 64 214
25 205 28 310 11 457 -20 178 -18 172 -122 411 -24 56 -44 115 -44 132 0 17
-6 51 -14 74 -8 24 -17 66 -20 93 -8 65 -70 390 -101 525 -13 58 -29 132 -35
165 -25 122 -86 262 -153 348 -34 43 -172 161 -232 197 -22 13 -72 55 -112 92
-71 67 -92 80 -94 56z m-1833 -2471 c29 -16 65 -63 92 -118 18 -38 22 -63 22
-146 l0 -99 38 -36 c20 -19 69 -57 107 -84 189 -129 295 -227 340 -314 38 -73
27 -186 -29 -299 -37 -77 -96 -128 -224 -192 -118 -60 -144 -59 -284 17 -130
70 -186 111 -250 185 -45 52 -51 64 -69 150 -25 120 -36 343 -20 390 6 19 30
64 52 101 35 57 45 89 69 208 35 173 37 177 67 218 26 34 53 40 89 19z"/>
<path d="M4900 4327 c0 -6 -6 -18 -14 -26 -11 -13 -15 -60 -17 -216 l-3 -200
33 -62 c19 -36 61 -89 100 -126 53 -52 79 -68 132 -86 74 -24 96 -22 170 15
47 23 90 66 136 135 37 56 37 142 1 196 -33 50 -100 116 -168 166 -30 23 -88
67 -128 99 -40 32 -92 69 -115 82 -46 26 -127 41 -127 23z"/>
<path d="M3625 3638 c-2 -7 -6 -71 -9 -143 -5 -129 -21 -236 -52 -347 -20 -69
-10 -120 38 -210 62 -117 303 -415 434 -538 69 -64 139 -100 194 -100 46 0
163 55 213 99 51 47 137 167 137 193 0 25 -142 153 -214 193 -78 44 -154 101
-211 159 -52 54 -192 229 -229 286 -16 25 -71 104 -122 177 -52 72 -98 140
-102 150 -15 35 -54 93 -63 93 -5 0 -11 -6 -14 -12z"/>
<path d="M5062 2953 c-50 -59 -37 -128 13 -73 15 17 35 110 23 110 -3 0 -19
-17 -36 -37z"/>
<path d="M5241 2923 c-6 -21 -11 -56 -11 -78 0 -22 -7 -74 -15 -115 -9 -41
-19 -94 -22 -118 -6 -46 -30 -68 -64 -59 -14 4 -19 0 -19 -17 0 -22 51 -86 69
-86 5 0 28 18 50 39 23 22 54 42 70 46 16 3 37 15 47 26 18 20 17 21 -20 52
-31 27 -38 39 -38 69 0 41 17 78 35 78 7 0 22 -7 33 -15 10 -8 27 -15 37 -15
25 0 18 34 -8 38 -32 6 -42 20 -49 64 -4 22 -16 53 -26 68 -11 16 -20 33 -20
38 0 8 -22 22 -35 22 -2 0 -9 -17 -14 -37z"/>
<path d="M5521 2652 c-14 -26 -7 -42 10 -25 6 6 9 19 7 29 -3 17 -5 17 -17 -4z"/>
</g>
</svg>
