<?xml version="1.0" standalone="no"?>
<!DOCTYPE svg PUBLIC "-//W3C//DTD SVG 20010904//EN"
 "http://www.w3.org/TR/2001/REC-SVG-20010904/DTD/svg10.dtd">
<svg version="1.0" xmlns="http://www.w3.org/2000/svg"
 width="1120.000000pt" height="1120.000000pt" viewBox="0 0 1120.000000 1120.000000"
 preserveAspectRatio="xMidYMid meet">

<g transform="translate(0.000000,1120.000000) scale(0.100000,-0.100000)"
fill="#000000" stroke="none">
<path d="M6005 9660 c-9 -15 3 -30 24 -30 21 0 44 23 34 33 -10 11 -51 8 -58
-3z"/>
<path d="M6335 9493 c-11 -2 -34 -11 -52 -19 -17 -8 -34 -14 -37 -14 -9 0
-105 -68 -158 -113 -26 -22 -61 -63 -77 -92 -36 -63 -96 -116 -170 -151 -46
-22 -64 -26 -114 -21 -69 6 -103 27 -171 106 l-46 55 34 35 c34 37 62 102 51
121 -3 5 -21 10 -40 10 -27 0 -37 -6 -54 -34 -22 -35 -39 -46 -73 -46 -35 0
-77 -33 -89 -70 -20 -62 -45 -80 -110 -80 -32 0 -70 5 -86 12 -15 6 -66 13
-113 15 -119 4 -200 11 -247 21 -62 14 -192 -12 -278 -55 -38 -19 -77 -41 -85
-48 -8 -7 -37 -23 -65 -35 -116 -50 -244 -115 -336 -171 -54 -32 -101 -59
-104 -59 -5 0 -89 -53 -312 -197 -29 -18 -58 -39 -65 -46 -7 -6 -34 -28 -60
-47 -36 -27 -47 -42 -48 -62 0 -34 24 -64 70 -88 19 -10 76 -53 125 -95 246
-208 267 -223 327 -231 53 -7 157 11 177 31 19 19 26 157 11 215 -7 25 -14 60
-17 79 -5 31 -4 33 15 29 18 -5 25 3 46 47 33 72 82 123 179 187 166 110 241
142 301 131 40 -8 34 -48 -15 -108 -22 -27 -46 -54 -53 -59 -14 -12 -120 -129
-150 -166 -10 -13 -23 -40 -27 -59 -13 -53 -12 -312 2 -507 15 -212 6 -291
-41 -358 -18 -27 -49 -55 -73 -67 -23 -12 -45 -26 -49 -32 -3 -6 4 -32 18 -59
27 -53 31 -104 10 -133 -7 -11 -17 -33 -21 -50 -5 -16 -9 -33 -10 -37 -2 -5
-3 -12 -4 -16 -1 -8 -112 -62 -126 -62 -3 0 -14 -8 -24 -17 -11 -10 -26 -23
-33 -29 -57 -46 -249 -277 -323 -389 -31 -47 -74 -103 -95 -123 -20 -20 -44
-48 -52 -62 -20 -32 -30 -88 -18 -95 5 -3 37 8 70 25 34 17 77 33 96 35 18 3
66 13 106 24 130 34 147 34 233 6 43 -14 85 -30 92 -37 44 -36 226 -123 278
-132 22 -4 85 -30 140 -57 212 -105 247 -131 261 -194 3 -16 21 -63 40 -103
27 -59 34 -86 34 -136 0 -96 -21 -141 -110 -242 -44 -49 -80 -95 -80 -102 0
-6 -9 -29 -20 -49 -24 -45 -25 -72 -5 -79 23 -9 65 -86 65 -118 0 -26 -54
-140 -83 -176 -7 -9 -33 -32 -59 -53 -46 -38 -78 -95 -78 -140 0 -36 27 -64
78 -81 102 -34 132 -105 74 -176 -39 -47 -44 -67 -32 -106 16 -48 3 -62 -27
-30 -24 26 -37 30 -80 26 -17 -1 -23 4 -23 19 0 24 -20 71 -30 71 -4 0 -15 16
-25 36 -13 28 -14 41 -6 66 15 44 14 55 -10 77 l-22 20 -47 -47 c-25 -26 -54
-53 -63 -60 -11 -8 -17 -27 -17 -55 0 -31 -9 -57 -32 -93 -42 -65 -50 -142
-19 -173 28 -28 27 -53 -6 -113 -32 -58 -119 -131 -178 -147 -37 -10 -45 -8
-113 27 -89 44 -106 71 -100 148 5 55 46 147 95 211 19 26 31 33 59 33 32 0
34 -2 34 -32 -1 -83 -20 -211 -35 -227 -21 -24 -19 -48 5 -61 28 -15 50 -6 90
35 32 33 35 41 38 109 5 86 -7 114 -73 179 -53 53 -57 79 -24 175 19 58 30 71
163 195 85 81 156 139 177 146 20 7 48 30 69 57 24 30 41 43 53 40 28 -7 32
39 13 132 -29 138 -13 185 118 347 46 56 92 122 105 147 12 26 29 52 37 58 22
19 17 62 -13 115 -41 74 -85 113 -223 197 -14 8 -65 25 -115 38 -88 23 -277
94 -339 128 -26 15 -58 17 -215 15 -180 -2 -185 -2 -203 -25 -10 -13 -21 -34
-24 -48 -3 -14 -14 -47 -24 -75 -10 -27 -24 -70 -32 -95 -13 -45 -50 -79 -123
-115 -16 -8 -49 -31 -73 -50 -38 -30 -51 -35 -97 -35 -99 0 -119 19 -119 120
0 38 19 86 44 110 60 60 62 65 49 127 -7 32 -12 66 -11 76 1 25 57 137 93 186
16 23 34 53 39 66 25 64 175 269 284 385 157 169 212 223 286 282 85 69 98 94
99 186 1 56 4 67 30 93 17 17 40 29 55 29 19 0 33 11 53 41 16 23 36 53 45 67
38 57 49 268 18 334 -17 37 -63 55 -104 40 -17 -6 -78 -14 -136 -18 -101 -6
-108 -5 -188 25 -45 17 -109 49 -141 70 -73 50 -301 259 -301 276 0 50 -103
-9 -150 -84 -32 -53 -48 -70 -130 -139 -48 -40 -70 -51 -154 -74 -267 -74
-411 -94 -463 -63 -21 12 -34 14 -53 7 -53 -21 -133 -97 -189 -181 -96 -145
-171 -265 -181 -289 -6 -13 -28 -54 -49 -90 -21 -37 -42 -78 -46 -91 -4 -13
-22 -49 -40 -80 -43 -74 -125 -234 -149 -291 -11 -25 -41 -91 -67 -148 -64
-134 -87 -204 -104 -315 -8 -51 -24 -129 -35 -175 -11 -45 -19 -86 -16 -90 8
-14 -13 -154 -26 -170 -21 -25 -23 -377 -3 -557 9 -82 21 -199 25 -260 14
-179 30 -305 50 -395 11 -47 24 -128 30 -180 6 -52 18 -142 27 -200 10 -68 13
-133 9 -185 -9 -114 22 -325 54 -370 4 -5 19 -42 34 -82 54 -142 208 -426 341
-628 50 -77 139 -212 197 -300 260 -396 530 -685 638 -685 17 0 74 23 88 35 2
2 -3 16 -11 32 -8 15 -20 53 -27 83 -18 83 -2 129 73 208 71 74 66 73 210 16
101 -40 232 -111 292 -159 90 -72 269 -150 362 -159 40 -3 90 -12 110 -20 21
-8 55 -17 75 -19 21 -3 57 -19 82 -36 25 -17 55 -31 69 -31 30 0 93 -33 195
-102 42 -29 97 -59 122 -68 61 -21 198 -97 234 -129 27 -25 126 -163 126 -176
0 -4 13 -25 28 -48 16 -23 48 -77 71 -120 52 -95 81 -130 123 -150 29 -14 40
-14 97 -1 47 11 89 13 165 8 110 -8 143 -8 346 -2 242 8 341 19 495 55 85 21
194 39 251 43 79 5 113 13 160 34 32 16 99 39 148 52 63 17 126 45 210 93 67
37 153 85 191 106 39 21 120 70 180 109 61 40 121 77 135 84 14 7 59 34 100
61 41 27 110 71 152 98 248 154 639 495 839 731 112 132 217 284 243 350 13
32 34 75 47 97 25 40 73 136 144 290 20 44 54 116 75 160 22 44 53 116 70 160
17 44 40 100 52 125 50 108 31 163 -59 175 -67 9 -93 21 -93 45 0 25 -37 27
-104 4 -39 -13 -52 -14 -77 -4 -26 11 -34 10 -57 -7 -59 -43 -85 -51 -152 -46
-91 7 -137 -8 -194 -64 -54 -53 -132 -81 -169 -61 -11 6 -37 13 -56 15 -51 7
-71 20 -71 46 0 34 66 67 134 67 55 0 137 25 186 58 14 9 54 27 90 39 47 17
76 35 105 66 22 23 51 51 66 62 14 11 36 36 50 56 13 19 60 81 104 137 58 73
89 105 113 113 26 8 38 22 52 55 14 31 25 44 39 44 28 0 37 -40 17 -78 -12
-24 -14 -43 -8 -84 8 -53 7 -53 -41 -115 -27 -35 -62 -72 -78 -84 -35 -25 -39
-59 -7 -59 36 0 104 47 122 84 20 43 36 112 45 195 l6 65 78 16 c72 16 127 47
127 73 0 5 20 34 44 65 24 32 58 95 76 142 18 47 41 94 50 105 31 36 52 87 52
129 1 71 -27 120 -101 178 -36 29 -100 85 -141 123 -91 87 -219 175 -264 182
-28 4 -36 1 -53 -23 -11 -16 -24 -39 -28 -52 -12 -39 16 -192 52 -280 22 -55
33 -100 33 -133 0 -48 -3 -53 -60 -111 -33 -33 -60 -64 -60 -68 0 -11 -168
-210 -194 -231 -50 -39 -192 -105 -331 -152 -149 -51 -151 -52 -268 -50 -106
1 -121 3 -141 22 -25 23 -38 26 -64 12 -9 -6 -40 -17 -69 -26 -29 -9 -68 -27
-88 -41 -20 -13 -62 -35 -93 -48 -49 -21 -58 -29 -64 -57 -4 -24 -2 -39 12
-56 15 -19 16 -30 8 -70 -5 -27 -13 -70 -18 -98 -5 -27 -12 -59 -15 -71 -11
-35 17 -48 83 -39 31 4 84 10 117 15 33 4 105 15 160 25 137 25 177 13 161
-49 -4 -17 -17 -28 -43 -36 -21 -7 -57 -23 -80 -36 -40 -23 -175 -50 -194 -38
-19 11 -47 -8 -64 -41 -9 -19 -23 -35 -31 -35 -24 0 -64 -50 -64 -81 0 -22 6
-30 26 -35 39 -10 88 8 92 33 2 16 16 24 61 37 31 9 71 16 88 16 17 0 59 14
92 31 l60 31 36 -22 c23 -15 34 -28 31 -37 -3 -8 -6 -21 -6 -28 0 -23 -68 -58
-101 -51 -24 4 -36 -1 -67 -28 -50 -45 -79 -59 -108 -52 -13 4 -24 2 -24 -3 0
-25 -62 -79 -103 -91 -40 -11 -50 -9 -96 11 -38 16 -60 33 -77 61 -27 42 -29
42 -103 12 -60 -25 -172 -14 -193 19 -13 20 -8 149 6 190 18 51 42 75 96 101
39 18 45 26 48 55 3 31 -3 40 -59 93 -102 95 -120 140 -80 196 25 37 101 181
101 194 0 5 -14 29 -31 53 l-31 43 21 47 c11 26 18 51 15 56 -8 14 -46 9 -79
-10 -44 -26 -171 -180 -186 -226 -24 -73 -98 -209 -136 -251 -47 -51 -126
-108 -218 -158 -38 -21 -91 -56 -118 -78 -54 -45 -160 -111 -197 -123 -14 -4
-65 -28 -113 -52 -92 -46 -122 -50 -140 -21 -14 21 20 51 76 68 20 6 37 15 37
20 0 16 -60 58 -92 65 -37 8 -238 111 -308 158 -25 17 -65 48 -90 70 -25 21
-65 48 -88 60 -24 11 -46 26 -49 33 -8 20 -54 6 -78 -23 -20 -24 -21 -25 -160
-20 -77 3 -158 9 -179 12 -47 9 -66 -9 -66 -63 0 -35 -37 -132 -50 -132 -4 0
-12 -19 -18 -43 -16 -64 -63 -87 -173 -87 -86 0 -100 4 -294 82 -27 11 -63 23
-80 28 -89 23 -113 38 -156 99 -47 65 -57 107 -35 150 9 17 22 31 28 31 6 0
30 -18 54 -40 30 -28 53 -40 73 -40 20 0 42 -11 68 -35 21 -19 53 -40 71 -46
17 -6 32 -14 32 -18 0 -8 77 -61 88 -61 4 -1 25 -9 47 -20 50 -24 90 -25 113
-2 9 9 32 28 49 40 47 33 68 86 107 260 21 92 135 267 194 298 l43 23 50 -19
c27 -11 64 -20 82 -20 28 0 49 -17 172 -143 211 -216 294 -276 416 -301 39 -9
99 -27 135 -41 132 -53 288 -59 375 -15 70 36 262 151 286 173 40 36 102 204
124 337 14 81 35 116 109 181 51 44 60 58 70 102 6 29 17 73 26 100 15 44 18
47 50 47 19 0 48 -7 63 -14 15 -8 50 -20 77 -27 88 -22 117 -49 160 -151 31
-71 48 -98 82 -126 24 -20 52 -53 63 -75 19 -35 23 -39 52 -34 18 3 64 17 102
32 96 37 198 39 274 6 97 -42 207 -18 468 100 60 27 173 127 219 194 136 198
139 207 103 378 -15 69 -21 134 -20 201 1 94 2 102 29 135 16 20 46 42 66 50
33 13 44 12 91 -3 29 -9 82 -36 118 -61 72 -49 198 -124 240 -143 41 -18 59
-15 89 13 35 33 42 88 35 312 -4 166 -7 184 -35 263 -16 47 -33 109 -37 138
-4 29 -18 95 -31 145 -13 51 -46 178 -73 282 -27 105 -59 216 -71 248 -12 32
-35 108 -50 169 -22 87 -34 117 -59 142 -16 17 -53 78 -82 136 -56 114 -112
202 -168 266 -20 22 -52 58 -70 80 -159 180 -208 234 -315 340 -66 66 -166
160 -220 209 -55 48 -114 101 -130 117 -76 71 -338 272 -496 378 -36 24 -98
65 -137 92 -94 63 -281 164 -348 187 -28 10 -63 25 -78 32 -35 19 -166 88
-202 107 -17 9 -59 16 -100 17 -79 2 -107 14 -157 68 -38 40 -77 47 -147 27
-45 -12 -155 2 -213 29 -46 21 -63 23 -103 14z m-1987 -5129 c0 -24 -22 -43
-35 -31 -5 6 23 57 31 57 2 0 4 -12 4 -26z m4650 -196 c2 -10 -22 -37 -65 -73
-72 -60 -105 -78 -164 -89 -20 -3 -53 -20 -75 -36 -21 -16 -46 -30 -54 -30 -8
0 -40 -14 -70 -31 -108 -61 -226 -116 -307 -143 -130 -43 -166 -24 -95 49 34
36 77 62 167 101 136 59 173 79 210 113 35 33 122 71 160 71 4 0 23 7 43 16
175 76 168 73 212 71 24 -1 36 -7 38 -19z m68 -154 c8 -41 -5 -73 -48 -124
-33 -39 -118 -156 -153 -211 -38 -59 -175 -126 -175 -85 0 7 11 33 24 58 13
24 27 55 31 69 4 13 49 69 99 124 51 55 102 117 115 138 45 74 96 89 107 31z
m-2891 -261 c28 -30 45 -80 45 -130 0 -31 -11 -45 -79 -103 -17 -14 -38 -20
-75 -20 -28 0 -68 -3 -90 -7 -38 -6 -38 -7 -33 -44 3 -22 19 -55 38 -78 20
-26 32 -52 32 -71 0 -34 -28 -70 -54 -70 -26 0 -177 100 -220 146 -72 77 -62
110 77 245 79 75 108 98 145 108 26 7 59 21 75 32 45 29 107 25 139 -8z"/>
<path d="M5875 9438 c-27 -11 -67 -22 -87 -23 -56 -5 -78 -14 -78 -33 0 -24
72 -153 92 -166 24 -15 55 16 69 68 8 29 27 56 66 93 84 78 53 109 -62 61z"/>
<path d="M4305 9352 c-12 -9 -27 -25 -34 -34 -11 -15 -11 -18 1 -18 15 0 78
51 78 63 0 13 -25 7 -45 -11z"/>
<path d="M5220 9342 c-42 -21 -44 -33 -8 -46 37 -13 78 9 78 41 0 28 -21 30
-70 5z"/>
<path d="M4176 9261 c-3 -5 -44 -23 -90 -39 -87 -32 -274 -123 -411 -200 -43
-25 -113 -62 -155 -83 -132 -68 -351 -225 -466 -336 -63 -61 -276 -253 -347
-313 -73 -62 -167 -161 -167 -176 0 -17 2 -17 120 0 52 8 122 17 155 21 101
12 177 41 246 94 35 27 72 64 82 81 17 27 17 37 7 81 -15 60 -9 86 35 155 25
39 48 60 84 78 27 14 70 43 96 66 25 22 56 45 68 52 12 6 52 35 89 65 38 30
112 77 165 105 102 53 137 75 343 221 146 104 170 123 170 131 0 9 -18 7 -24
-3z"/>
<path d="M3483 6313 c-9 -21 -16 -45 -16 -53 0 -8 -8 -27 -18 -42 -22 -30 -25
-68 -6 -68 11 0 49 54 52 75 2 17 17 89 22 108 9 33 -18 17 -34 -20z"/>
<path d="M4391 4882 c-6 -12 -5 -23 5 -36 13 -18 14 -18 24 8 5 15 10 32 10
37 0 16 -29 10 -39 -9z"/>
<path d="M7580 4878 c0 -7 11 -31 25 -53 36 -58 33 -91 -10 -116 -32 -19 -48
-49 -26 -49 5 0 16 -11 25 -25 16 -24 16 -27 -15 -71 -17 -25 -28 -51 -26 -58
7 -18 51 -25 74 -13 27 15 27 15 13 32 -7 9 -10 18 -7 21 3 3 1 19 -3 35 -8
26 -4 33 26 63 36 35 42 57 20 75 -8 6 -16 37 -18 71 -3 39 -11 66 -23 80 -20
22 -55 27 -55 8z"/>
<path d="M4186 4667 c-18 -40 -20 -47 -7 -47 14 0 39 56 31 70 -4 7 -13 -1
-24 -23z"/>
<path d="M9393 4658 c-6 -7 -22 -38 -36 -68 -14 -31 -42 -70 -61 -88 -36 -33
-39 -41 -36 -122 1 -52 8 -80 19 -80 38 0 143 217 143 297 0 52 -14 80 -29 61z"/>
<path d="M4602 4624 c2 -33 16 -56 29 -48 16 9 10 40 -11 59 -20 18 -20 18
-18 -11z"/>
<path d="M5403 4624 c-18 -28 -22 -76 -10 -108 6 -16 15 -18 58 -13 59 7 71
15 94 63 15 32 15 37 1 60 -14 21 -24 24 -71 24 -48 0 -57 -3 -72 -26z"/>
<path d="M7589 4108 c-6 -10 -9 -31 -7 -46 6 -52 88 -42 88 12 0 30 -11 42
-43 48 -21 4 -30 0 -38 -14z"/>
<path d="M3169 2513 c-18 -4 -64 -96 -56 -110 3 -5 2 -35 -2 -67 -8 -56 -7
-60 22 -93 17 -19 56 -52 86 -73 31 -21 70 -52 86 -70 35 -38 297 -237 328
-250 12 -5 54 -32 92 -59 39 -28 118 -75 177 -105 59 -30 127 -68 151 -85 24
-16 72 -37 107 -46 40 -10 79 -29 104 -50 65 -53 161 -103 286 -149 163 -60
208 -70 299 -62 44 4 88 3 103 -3 35 -13 68 -3 68 20 0 34 -51 125 -186 333
-45 70 -126 160 -159 178 -51 29 -111 73 -155 114 -31 29 -91 64 -186 109 -76
36 -148 71 -159 77 -11 7 -76 15 -145 19 -123 7 -206 28 -250 65 -8 7 -26 18
-40 24 -43 19 -70 37 -98 63 -27 25 -111 67 -136 67 -27 0 -80 28 -173 91 -37
26 -80 49 -95 53 -14 3 -32 8 -40 10 -7 2 -20 2 -29 -1z"/>
</g>
</svg>
