<?xml version="1.0" standalone="no"?>
<!DOCTYPE svg PUBLIC "-//W3C//DTD SVG 20010904//EN"
 "http://www.w3.org/TR/2001/REC-SVG-20010904/DTD/svg10.dtd">
<svg version="1.0" xmlns="http://www.w3.org/2000/svg"
 width="1120.000000pt" height="1120.000000pt" viewBox="0 0 1120.000000 1120.000000"
 preserveAspectRatio="xMidYMid meet">

<g transform="translate(0.000000,1120.000000) scale(0.100000,-0.100000)"
fill="#000000" stroke="none">
<path d="M6175 9770 c-4 -6 11 -41 33 -78 21 -37 54 -94 72 -127 35 -65 103
-164 157 -232 83 -104 487 -393 549 -393 10 0 25 -7 35 -16 9 -8 42 -18 73
-21 44 -5 61 -2 83 13 50 33 141 8 228 -61 57 -46 165 -101 226 -115 38 -9 80
-33 148 -83 112 -83 151 -100 205 -94 131 16 142 35 95 172 -33 97 -64 152
-91 161 -9 3 -31 23 -48 44 -31 40 -285 235 -395 304 -33 21 -69 46 -80 56
-24 21 -93 61 -115 65 -56 13 -109 35 -134 58 -15 14 -44 31 -64 38 -21 6 -59
26 -87 44 -27 18 -84 49 -125 70 -41 20 -99 52 -128 72 -52 34 -224 104 -292
118 -35 7 -35 7 -16 -13 18 -21 18 -22 -9 -32 -29 -11 -75 -6 -110 13 -11 6
-27 12 -35 13 -8 1 -37 9 -65 18 -58 18 -101 21 -110 6z"/>
<path d="M5440 9643 c-102 -23 -146 -26 -171 -12 -31 17 -58 12 -89 -16 -31
-28 -96 -39 -218 -36 -73 1 -93 -1 -98 -13 -3 -8 -24 -18 -47 -21 -23 -4 -53
-14 -66 -22 -29 -19 -103 -20 -135 -3 -22 11 -29 9 -71 -19 -25 -17 -59 -31
-75 -31 -16 0 -49 -11 -74 -25 -25 -14 -57 -25 -72 -25 -15 0 -65 -18 -110
-40 -46 -22 -86 -40 -89 -40 -12 0 -273 -155 -395 -235 -69 -45 -170 -110
-225 -144 -118 -74 -155 -99 -214 -143 -25 -18 -79 -58 -122 -88 -309 -220
-556 -462 -739 -725 -19 -28 -43 -59 -53 -70 -37 -41 -199 -342 -251 -467 -19
-48 -56 -129 -80 -181 -79 -164 -155 -394 -156 -465 0 -18 4 -21 23 -17 17 5
39 -4 77 -30 64 -43 113 -65 146 -65 26 0 124 69 124 87 0 7 -14 34 -30 60
-21 33 -30 58 -29 83 3 37 -10 68 -35 90 -29 23 -18 58 35 113 27 28 58 70 68
93 40 90 146 174 219 174 41 0 42 0 42 -36 0 -31 -11 -47 -100 -138 -71 -73
-107 -118 -124 -158 -14 -30 -31 -58 -39 -61 -8 -3 -17 -17 -19 -30 -4 -19 1
-28 18 -37 30 -17 71 -16 92 2 9 9 29 18 43 21 24 6 47 22 154 107 55 44 145
90 175 90 32 0 158 47 187 69 39 31 67 27 101 -16 l30 -38 101 3 c108 3 151
13 151 36 0 22 67 67 102 68 25 1 39 -7 67 -39 50 -55 101 -69 180 -48 55 14
63 14 108 -2 43 -16 51 -24 76 -76 25 -52 27 -62 16 -89 -14 -35 -88 -94 -129
-103 -29 -6 -60 -42 -60 -70 0 -8 17 -26 38 -39 24 -15 53 -49 76 -87 32 -54
37 -71 38 -128 1 -42 -4 -77 -14 -96 -9 -16 -19 -46 -23 -65 -4 -19 -16 -58
-27 -87 -22 -59 -32 -65 -115 -71 -35 -3 -27 -20 17 -38 25 -10 44 -26 52 -45
7 -16 17 -29 23 -29 5 0 44 12 85 27 59 22 87 39 131 83 53 52 58 62 93 172
32 99 44 125 82 167 47 52 138 117 241 170 34 18 97 64 139 101 86 77 155 114
228 125 64 9 96 21 96 37 0 20 40 42 53 29 8 -8 3 -19 -16 -39 -49 -51 -39
-61 142 -152 109 -56 203 -122 338 -239 45 -39 89 -71 98 -71 9 0 28 6 44 14
15 8 60 26 99 40 40 14 84 34 99 45 14 12 36 21 49 21 26 0 54 -24 54 -46 0
-20 59 -74 74 -68 27 10 46 63 44 117 -2 60 17 98 88 177 64 70 97 85 191 83
48 -1 94 -8 110 -16 15 -8 51 -17 78 -21 50 -7 115 -34 115 -48 0 -5 25 -8 55
-8 31 0 69 -7 85 -15 36 -19 65 -92 64 -160 0 -27 -1 -77 -1 -110 -1 -33 -2
-90 -3 -127 -2 -113 30 -148 125 -134 38 6 46 11 51 34 12 54 16 63 37 83 20
19 22 30 23 158 2 247 23 282 203 330 67 18 76 19 111 5 55 -22 71 -62 71
-174 0 -85 -2 -94 -35 -153 -20 -34 -54 -80 -76 -101 -24 -23 -38 -46 -36 -55
21 -70 18 -91 -13 -126 -17 -20 -38 -51 -45 -70 -10 -22 -32 -46 -62 -64 -26
-17 -61 -43 -78 -58 -17 -16 -49 -42 -72 -58 -23 -17 -69 -62 -104 -102 -34
-40 -71 -75 -81 -78 -11 -4 -26 -17 -34 -29 -13 -20 -13 -29 1 -77 14 -45 15
-64 5 -114 -6 -33 -13 -76 -17 -95 -3 -19 -19 -53 -35 -75 -16 -22 -34 -50
-40 -61 -6 -12 -22 -27 -36 -33 -16 -7 -36 -37 -60 -89 -20 -42 -47 -87 -60
-99 -50 -48 -16 -144 80 -228 23 -20 56 -49 72 -64 42 -38 78 -51 120 -44 37
6 185 -37 215 -62 16 -14 104 -55 116 -55 4 0 17 -8 28 -18 21 -19 179 -52
247 -52 31 0 148 28 191 45 14 6 88 142 88 162 0 19 73 102 133 150 126 102
136 107 195 108 47 0 57 -4 79 -29 21 -25 24 -36 19 -70 -11 -79 -28 -117 -72
-167 -45 -50 -53 -72 -33 -85 19 -11 2 -161 -22 -209 -48 -92 -85 -154 -137
-230 -62 -91 -188 -250 -222 -280 -13 -11 -41 -42 -62 -70 -22 -27 -100 -111
-174 -186 -102 -104 -134 -142 -134 -162 0 -14 -4 -37 -9 -50 -15 -38 -92
-136 -112 -142 -23 -8 -79 -74 -79 -95 0 -8 -11 -39 -25 -68 -19 -41 -25 -70
-25 -122 0 -60 4 -75 31 -115 17 -25 38 -49 47 -54 33 -16 155 -21 196 -6 40
14 123 7 182 -15 46 -18 167 -92 219 -135 28 -22 95 -73 150 -112 55 -39 109
-80 119 -92 12 -13 31 -21 52 -21 41 0 63 30 92 125 20 65 26 73 79 112 42 31
92 53 184 83 146 48 218 59 378 60 130 0 166 12 243 79 48 42 246 331 271 396
35 89 100 231 116 255 10 14 68 126 130 250 110 221 132 280 177 478 8 35 19
72 24 82 6 11 15 50 20 87 5 38 16 115 25 173 10 60 18 185 20 292 2 103 6
192 10 198 9 14 -13 454 -25 500 -5 19 -14 107 -20 195 -7 99 -22 212 -40 295
-28 130 -61 433 -65 590 -3 129 -16 167 -165 476 -22 45 -67 123 -101 174 -58
87 -95 149 -156 260 -37 67 -239 377 -331 509 -23 33 -92 113 -152 177 -61 64
-110 120 -110 125 0 4 -37 39 -83 78 -110 93 -156 104 -209 53 -32 -29 -37
-75 -13 -106 17 -22 20 -82 5 -91 -5 -3 -10 -23 -10 -44 0 -20 -6 -45 -13 -55
-18 -25 -81 -48 -145 -53 -47 -4 -63 0 -145 40 -51 24 -109 51 -129 58 -21 7
-38 17 -38 21 0 4 -8 8 -17 8 -23 0 -67 28 -118 75 -58 53 -118 86 -166 90
-24 2 -51 13 -63 24 -12 12 -30 21 -39 21 -9 0 -18 4 -21 9 -4 5 -24 5 -48 -1
-66 -15 -122 -4 -187 36 -33 20 -69 36 -82 36 -31 0 -113 40 -235 116 -58 36
-131 76 -162 90 -31 15 -71 32 -87 40 -17 8 -46 28 -64 44 -18 17 -36 30 -40
30 -32 0 -144 161 -236 338 -21 40 -58 96 -83 123 -40 44 -48 49 -88 49 -24 0
-67 -9 -96 -21 -47 -19 -65 -20 -166 -14 -62 3 -129 13 -147 21 -40 16 -49 16
-135 -3z m-30 -1922 c41 -31 83 -71 93 -89 l19 -32 -28 -58 c-31 -66 -155
-190 -219 -221 -180 -86 -201 -89 -251 -34 -19 21 -38 51 -43 68 -18 69 31
138 107 151 26 4 52 9 57 10 6 1 19 2 31 3 28 1 114 70 114 91 0 9 -16 34 -35
56 -47 53 -49 99 -4 118 41 17 66 8 159 -63z m-3273 -867 c8 -20 -13 -64 -31
-64 -18 0 -28 38 -15 62 12 22 37 24 46 2z"/>
<path d="M3960 9510 c0 -5 11 -10 25 -10 14 0 25 5 25 10 0 6 -11 10 -25 10
-14 0 -25 -4 -25 -10z"/>
<path d="M2965 7143 c-11 -3 -29 -12 -40 -19 -11 -8 -34 -14 -52 -14 -56 0
-174 -51 -243 -104 -36 -28 -72 -55 -82 -61 -53 -32 -159 -110 -197 -143 -43
-39 -43 -40 -31 -76 13 -41 45 -49 72 -18 85 96 160 143 253 159 46 8 51 11
82 64 26 43 44 61 76 75 23 10 51 27 61 36 22 20 61 24 71 7 4 -5 4 -21 1 -35
-7 -25 -27 -38 -77 -48 -18 -4 -32 -18 -43 -40 -9 -19 -23 -36 -31 -40 -8 -3
-15 -12 -15 -21 0 -22 43 -19 91 5 22 12 65 25 95 31 59 11 119 41 146 74 16
20 16 20 38 -8 21 -26 25 -27 110 -27 49 0 92 4 95 10 3 5 1 28 -6 50 -11 37
-15 40 -46 40 -19 0 -57 10 -85 22 -40 17 -54 19 -69 10 -21 -13 -78 -16 -95
-4 -7 4 -19 24 -27 45 -9 20 -20 36 -24 36 -4 -1 -17 -4 -28 -6z"/>
<path d="M3453 7128 c-18 -6 -33 -14 -33 -17 1 -23 48 -45 67 -32 6 3 13 18
17 34 7 30 2 32 -51 15z"/>
<path d="M3614 7029 c-38 -11 -72 -45 -57 -60 16 -16 60 7 78 41 8 16 14 30
13 29 -2 0 -17 -5 -34 -10z"/>
<path d="M6113 6793 c-39 -38 -77 -80 -87 -94 -9 -14 -20 -63 -25 -110 -10
-96 -54 -205 -102 -254 -16 -16 -41 -45 -55 -63 -38 -47 -78 -65 -129 -57 -24
3 -51 15 -60 25 -10 12 -31 20 -48 20 -25 0 -53 23 -176 148 -209 211 -339
302 -440 307 -63 3 -109 13 -151 33 -53 26 -257 24 -325 -2 -128 -50 -227
-117 -274 -186 -59 -86 -125 -245 -136 -325 -8 -65 -61 -145 -125 -191 -55
-39 -67 -65 -51 -108 17 -42 13 -62 -15 -95 -31 -38 -69 -40 -161 -11 -123 38
-140 53 -223 198 -62 109 -93 142 -133 142 -8 0 -36 9 -61 21 -46 20 -49 20
-84 3 -27 -13 -62 -18 -127 -18 -76 0 -96 3 -129 23 -37 21 -41 21 -52 6 -7
-9 -15 -12 -18 -7 -9 15 -107 12 -130 -4 -11 -7 -28 -14 -38 -14 -10 0 -18 -4
-18 -8 0 -5 -24 -14 -52 -22 -29 -7 -66 -23 -81 -36 -16 -13 -34 -24 -42 -24
-7 0 -18 -7 -25 -15 -7 -8 -20 -15 -29 -16 -37 -1 -138 -88 -204 -175 -37 -49
-84 -104 -104 -123 l-36 -35 6 -100 c5 -86 11 -113 42 -185 48 -113 57 -157
40 -195 -31 -71 -130 -142 -213 -153 -34 -5 -44 0 -92 42 -106 91 -246 175
-292 175 -17 0 -19 3 -9 9 22 14 -1 20 -48 11 -24 -4 -47 -14 -52 -21 -5 -8
-9 -97 -9 -199 0 -267 19 -429 61 -510 9 -20 20 -54 24 -75 4 -22 21 -87 37
-145 36 -122 63 -238 78 -328 6 -35 17 -73 25 -85 7 -12 30 -78 50 -147 21
-69 46 -142 56 -162 10 -20 29 -63 40 -94 12 -32 39 -76 61 -100 21 -23 59
-82 85 -131 32 -62 70 -115 132 -181 47 -52 105 -119 129 -150 63 -84 237
-256 412 -409 85 -75 184 -164 220 -198 99 -95 341 -270 512 -370 266 -155
590 -317 680 -340 35 -9 128 -45 208 -80 80 -35 173 -70 208 -76 60 -13 65
-12 115 13 48 24 55 24 96 12 50 -15 153 -6 235 20 27 9 66 16 86 16 36 0 38
2 49 43 7 24 37 75 74 122 76 98 131 130 241 140 64 6 85 4 148 -17 l73 -25
-1 -48 c0 -52 -19 -75 -60 -75 -19 0 -24 -7 -30 -46 -9 -63 5 -74 51 -38 31
23 47 28 100 28 55 1 68 5 102 32 21 17 51 50 67 73 34 50 65 65 126 56 75
-10 100 -24 100 -55 0 -62 66 -58 89 6 17 48 72 52 124 8 25 -21 36 -24 61
-18 17 4 72 7 121 8 84 1 93 3 136 33 26 18 82 49 125 71 135 65 283 146 543
294 19 11 60 36 90 55 31 20 88 55 128 79 93 55 219 148 232 171 5 10 12 34
16 53 l6 35 -86 49 c-48 26 -129 82 -180 125 -52 42 -132 102 -177 134 l-83
59 -70 -5 c-93 -7 -139 -24 -128 -46 4 -9 8 -74 8 -146 0 -113 -3 -136 -22
-178 -52 -113 -212 -249 -397 -339 -99 -47 -120 -48 -135 -8 -16 47 0 74 100
168 96 91 165 184 175 239 3 18 1 61 -4 96 -22 126 -31 643 -12 692 16 43 87
111 130 125 69 23 81 76 25 112 -20 13 -37 34 -40 50 -7 30 10 102 31 135 12
20 110 73 134 73 5 0 30 23 57 52 26 28 68 72 93 97 25 25 63 69 85 96 22 28
56 68 76 91 20 23 66 86 102 141 35 55 87 125 115 155 27 31 61 79 76 107 24
48 24 51 6 51 -10 0 -22 -5 -25 -10 -9 -14 -104 -74 -140 -87 -16 -7 -50 -15
-75 -19 -25 -3 -53 -11 -63 -16 -10 -5 -37 -11 -60 -13 -23 -2 -76 -7 -118
-11 -70 -6 -81 -4 -140 22 -75 34 -135 71 -206 132 -50 42 -54 43 -130 46
-164 7 -324 122 -393 282 -33 77 -34 83 -33 211 0 123 2 133 24 161 13 17 38
38 56 48 45 25 70 63 78 117 4 26 13 52 21 58 15 13 20 89 5 89 -11 0 -51 75
-51 96 0 35 62 144 129 228 55 69 70 94 65 110 -4 12 -13 25 -20 29 -7 4 -27
28 -44 52 -17 25 -36 45 -41 45 -14 0 -48 41 -49 58 0 6 4 12 10 12 5 0 25 13
43 30 43 37 62 101 60 198 -1 58 -6 81 -27 117 -15 25 -35 45 -44 45 -9 1 -33
9 -52 20 -57 31 -80 40 -151 59 -37 10 -75 25 -84 35 -9 9 -22 16 -30 16 -7 0
-44 -30 -82 -67z"/>
<path d="M7085 6830 c-3 -10 -6 -42 -7 -71 0 -50 -21 -89 -48 -89 -5 0 -10
-16 -10 -35 0 -37 38 -85 66 -85 7 0 19 -3 28 -6 11 -4 18 6 26 38 7 24 18 57
25 73 31 70 22 134 -23 172 -33 28 -49 29 -57 3z"/>
<path d="M3330 6813 c-14 -2 -64 -10 -111 -18 -48 -9 -178 -18 -298 -20 -117
-3 -230 -9 -252 -14 -21 -5 -62 -24 -91 -43 -29 -20 -64 -41 -78 -48 -43 -23
-140 -114 -160 -150 -27 -50 -76 -100 -98 -100 -25 0 -37 -15 -52 -65 -12 -42
-84 -130 -106 -130 -7 0 -28 -18 -47 -39 -46 -54 -88 -55 -132 -2 l-31 38 -48
-49 c-122 -122 -212 -266 -256 -406 -26 -82 -25 -133 4 -180 21 -34 195 -198
291 -273 156 -122 275 -129 275 -15 0 39 -43 171 -59 180 -12 8 -81 178 -81
200 0 23 78 151 126 208 90 105 135 160 166 200 32 41 55 55 204 124 23 10 46
19 52 19 6 0 30 13 54 29 58 38 264 85 369 84 21 -1 50 -10 65 -21 43 -31 102
-33 130 -5 9 10 41 20 75 24 43 5 68 14 94 35 44 37 101 151 115 234 7 36 14
78 17 93 5 24 -2 35 -41 73 -25 24 -52 43 -59 43 -6 -1 -23 -3 -37 -6z"/>
<path d="M1846 6621 c-11 -12 -20 -43 -23 -80 l-6 -61 47 -20 c25 -12 46 -25
46 -30 0 -15 74 -12 95 4 19 14 19 15 1 35 -11 12 -27 21 -38 21 -18 0 -32 22
-42 71 -6 27 -42 79 -55 79 -4 0 -16 -9 -25 -19z"/>
<path d="M3580 6579 c0 -18 -84 -139 -123 -178 -24 -22 -33 -39 -30 -52 7 -25
37 -17 78 21 17 16 44 32 60 35 18 5 50 29 82 64 74 79 70 103 -19 116 -36 6
-48 4 -48 -6z"/>
<path d="M5701 6505 c-34 -67 -36 -100 -4 -88 27 9 53 34 80 76 l24 38 -23 19
c-13 11 -28 19 -33 20 -6 0 -26 -29 -44 -65z"/>
<path d="M7004 6413 c-28 -5 -83 -108 -67 -124 12 -12 37 10 90 78 22 28 24
55 5 52 -4 -1 -16 -4 -28 -6z"/>
<path d="M1964 6321 c-45 -28 -49 -39 -17 -47 15 -3 36 -8 45 -10 30 -9 60 15
56 44 -4 35 -40 40 -84 13z"/>
<path d="M6671 6287 c-7 -9 -11 -35 -9 -64 3 -42 6 -48 23 -45 11 2 24 7 28
12 10 9 -1 73 -17 95 -11 15 -13 15 -25 2z"/>
<path d="M3580 6164 c1 -20 19 -37 34 -31 17 7 22 27 7 27 -5 0 -16 3 -25 6
-9 3 -16 2 -16 -2z"/>
<path d="M8500 2903 c-124 -20 -244 -50 -290 -71 -91 -43 -108 -59 -116 -111
-4 -25 -15 -79 -25 -120 -11 -41 -19 -89 -19 -107 0 -37 -28 -63 -110 -104
-58 -29 -231 -148 -380 -259 -41 -31 -113 -82 -160 -114 -166 -111 -275 -194
-278 -211 -7 -32 41 -16 163 54 67 38 133 74 146 79 14 5 56 30 94 57 80 54
142 91 235 142 36 19 72 40 80 47 8 8 56 40 105 73 50 32 119 88 155 123 36
36 99 89 140 117 41 29 120 97 175 151 55 54 127 117 160 140 33 23 72 57 87
75 l27 34 -31 6 c-32 6 -116 6 -158 -1z"/>
<path d="M5333 1712 c-64 -60 -91 -99 -76 -112 4 -4 43 -10 86 -12 84 -5 118
8 132 52 10 31 -13 98 -35 105 -11 4 -20 11 -20 16 0 21 -28 5 -87 -49z"/>
</g>
</svg>
