<?xml version="1.0" standalone="no"?>
<!DOCTYPE svg PUBLIC "-//W3C//DTD SVG 20010904//EN"
 "http://www.w3.org/TR/2001/REC-SVG-20010904/DTD/svg10.dtd">
<svg version="1.0" xmlns="http://www.w3.org/2000/svg"
 width="1500.000000pt" height="1500.000000pt" viewBox="0 0 1500.000000 1500.000000"
 preserveAspectRatio="xMidYMid meet">

<g transform="translate(0.000000,1500.000000) scale(0.100000,-0.100000)"
fill="#000000" stroke="none">
<path d="M6391 14675 c-18 -25 -58 -67 -90 -93 l-57 -48 -114 -2 -115 -2 -118
-60 c-109 -55 -124 -60 -183 -60 -72 0 -125 -23 -179 -80 -18 -19 -39 -30 -56
-30 -22 0 -35 -11 -66 -55 -45 -65 -93 -87 -159 -72 -36 8 -46 6 -95 -24 -30
-18 -96 -77 -148 -132 -61 -64 -127 -120 -190 -162 -53 -35 -115 -81 -137
-102 -193 -177 -215 -194 -299 -238 -50 -26 -104 -59 -120 -74 -17 -14 -42
-33 -55 -42 -23 -15 -25 -23 -29 -108 -2 -74 1 -102 17 -144 11 -29 23 -88 26
-132 3 -56 9 -83 20 -91 26 -18 18 -42 -21 -69 -24 -16 -51 -25 -76 -25 -28 0
-54 -11 -97 -40 -32 -22 -61 -44 -65 -50 -3 -5 -12 -7 -19 -4 -7 3 -40 -16
-74 -41 -57 -43 -164 -95 -196 -95 -26 0 -342 -160 -366 -185 -18 -19 -33 -25
-68 -25 -49 0 -125 -36 -197 -95 -22 -18 -82 -53 -132 -79 -67 -33 -97 -54
-108 -75 -8 -16 -41 -52 -74 -81 -67 -58 -78 -83 -50 -111 23 -23 25 -71 3
-109 -21 -35 -12 -73 21 -88 35 -16 39 -15 72 11 28 22 31 22 263 17 l235 -5
-3 -40 c-6 -68 -36 -112 -96 -142 l-54 -26 20 -46 c35 -79 42 -89 78 -113 53
-36 49 -50 -22 -96 -35 -22 -78 -56 -96 -76 -31 -33 -38 -36 -91 -36 -44 0
-75 -8 -127 -32 -38 -17 -91 -35 -119 -39 -112 -17 -194 -38 -264 -68 -41 -17
-84 -31 -97 -31 -12 0 -55 -12 -94 -26 -39 -14 -77 -23 -84 -21 -7 3 -23 -1
-37 -9 -29 -16 -118 -17 -179 0 -39 10 -51 9 -90 -8 -49 -21 -62 -36 -70 -81
-4 -23 -19 -39 -67 -71 -87 -57 -103 -80 -103 -147 0 -31 4 -67 10 -81 9 -24
14 -26 78 -26 60 0 71 -3 92 -25 13 -14 34 -25 46 -25 13 0 39 -9 58 -21 31
-18 36 -26 36 -59 0 -55 -30 -75 -135 -90 -77 -11 -88 -15 -122 -49 -21 -21
-59 -51 -84 -69 -78 -53 -101 -140 -43 -162 14 -6 53 -10 87 -10 34 0 85 -3
113 -6 l52 -6 0 -78 0 -78 -55 -47 c-30 -27 -63 -62 -73 -78 -11 -17 -37 -42
-58 -56 -22 -14 -70 -47 -106 -73 -37 -26 -81 -51 -99 -56 -26 -7 -33 -14 -35
-38 -2 -16 0 -26 4 -21 4 4 24 -8 43 -27 l36 -34 118 -4 c111 -3 120 -5 138
-27 13 -16 19 -39 19 -71 0 -42 -4 -52 -31 -74 -17 -14 -35 -26 -41 -26 -24 0
-67 -56 -73 -94 -11 -70 -14 -76 -44 -76 -34 0 -60 -25 -43 -42 15 -15 185
-30 249 -23 77 9 93 1 93 -44 0 -30 -14 -56 -75 -141 -52 -71 -77 -116 -82
-143 -4 -30 -13 -44 -35 -56 -15 -9 -31 -24 -34 -34 -3 -10 -21 -34 -40 -53
l-35 -34 7 -73 c6 -68 4 -78 -21 -123 -15 -27 -34 -57 -42 -66 -20 -23 -29
-109 -14 -137 10 -17 21 -21 59 -21 84 1 131 16 170 52 38 35 129 98 143 98 4
0 10 8 14 19 3 10 35 33 70 50 l65 32 45 -20 c32 -14 45 -26 45 -40 0 -23 -37
-148 -51 -171 -4 -8 -31 -52 -59 -96 -27 -45 -50 -91 -50 -102 0 -14 14 -25
48 -40 77 -34 80 -42 49 -147 -6 -22 -21 -54 -33 -72 -27 -40 -35 -130 -26
-278 4 -60 4 -130 1 -155 -14 -90 -78 -383 -90 -412 -9 -22 -9 -35 -1 -53 13
-29 47 -33 108 -12 37 13 113 29 195 42 46 7 112 50 134 88 12 21 17 48 16 88
l-2 59 70 69 70 68 53 -12 c75 -16 90 -43 85 -155 -5 -94 -17 -154 -37 -187
-12 -19 -12 -24 3 -41 13 -14 17 -37 17 -89 0 -61 3 -72 25 -93 18 -17 25 -34
25 -62 0 -60 24 -88 74 -88 50 0 87 -18 102 -48 6 -13 28 -35 48 -48 39 -27
47 -60 25 -108 -9 -20 -6 -37 20 -101 17 -43 31 -90 31 -104 0 -44 -36 -105
-90 -154 l-50 -45 25 -44 c14 -23 25 -55 25 -69 0 -19 11 -35 36 -54 29 -22
34 -32 30 -51 -5 -19 -2 -26 17 -33 24 -9 67 -70 67 -95 0 -7 13 -33 30 -57
22 -34 33 -69 45 -140 26 -159 69 -291 144 -433 106 -203 181 -336 222 -391
24 -33 38 -65 42 -95 3 -27 13 -51 25 -60 27 -22 38 -48 47 -105 9 -64 54
-237 66 -251 4 -5 16 -46 25 -90 13 -61 25 -89 53 -122 64 -77 79 -108 104
-202 19 -69 32 -100 56 -124 22 -23 31 -41 31 -66 0 -58 54 -151 131 -225 48
-47 76 -83 88 -115 10 -26 27 -57 39 -69 11 -13 32 -35 47 -51 25 -27 85 -140
85 -161 0 -22 47 -70 101 -104 79 -48 139 -119 188 -219 27 -55 55 -97 81
-119 30 -26 40 -41 40 -64 0 -34 18 -61 97 -145 29 -31 53 -64 53 -73 0 -9 9
-30 21 -46 12 -17 18 -37 15 -47 -8 -23 16 -45 67 -67 21 -9 41 -23 44 -33 3
-9 31 -44 62 -78 68 -73 86 -95 103 -128 7 -13 33 -39 58 -57 25 -18 49 -38
53 -46 4 -7 16 -13 26 -13 11 0 49 -29 87 -65 37 -35 96 -79 130 -96 41 -21
92 -62 151 -121 59 -59 94 -87 108 -85 13 1 21 -5 23 -18 6 -31 21 -44 63 -55
22 -6 39 -17 39 -24 0 -8 10 -20 23 -29 12 -8 36 -38 52 -66 24 -40 38 -53 67
-61 20 -6 52 -26 71 -45 29 -29 42 -35 79 -35 25 0 54 -7 68 -17 16 -12 54
-20 105 -24 112 -10 134 -17 183 -59 39 -35 66 -45 139 -53 12 -1 32 -11 45
-23 30 -26 75 -54 88 -54 5 0 28 -18 50 -40 28 -28 49 -40 68 -40 19 0 38 -11
58 -31 34 -38 160 -99 202 -99 16 0 37 -9 47 -20 10 -12 25 -18 33 -15 7 2 26
-2 42 -10 53 -27 123 -20 245 26 67 25 160 25 216 -1 27 -12 66 -20 101 -20
32 0 78 -5 102 -12 30 -8 52 -9 68 -2 13 5 55 6 98 2 158 -15 217 -11 250 16
8 7 60 22 115 35 55 13 123 31 150 41 28 10 73 21 100 25 28 4 64 13 80 21 47
22 166 54 201 54 69 0 88 10 127 70 20 32 37 63 37 68 0 6 17 16 37 21 20 6
56 29 79 52 40 39 44 41 86 35 132 -20 132 -20 188 18 28 19 68 38 88 42 52 9
81 26 125 73 21 22 64 54 95 71 35 19 70 48 90 75 17 24 60 63 95 87 34 23 67
48 73 56 5 7 30 24 55 36 46 23 89 82 89 122 0 25 38 60 111 103 39 24 59 43
67 65 7 18 42 64 79 102 88 91 123 141 123 174 0 28 55 97 142 178 25 24 52
57 58 73 7 16 19 29 26 29 7 0 20 12 28 28 8 15 23 36 35 46 12 11 21 25 21
31 0 7 18 30 40 51 22 22 40 45 40 51 0 7 16 30 35 52 19 21 35 42 35 46 0 4
18 27 40 52 24 28 40 56 40 71 0 14 9 36 21 48 11 12 22 37 23 56 2 18 27 87
55 151 28 65 51 130 51 146 0 15 3 31 7 35 11 11 43 99 43 119 0 9 11 35 25
57 19 31 25 53 25 99 0 43 4 60 15 65 10 3 15 20 15 48 1 24 7 54 15 68 9 17
14 56 15 117 0 61 6 106 16 133 9 22 14 50 10 63 -3 13 1 32 9 44 8 11 18 38
24 59 15 67 45 138 62 151 9 7 19 25 22 41 3 16 16 34 31 42 14 7 26 22 26 32
0 11 7 33 16 50 9 17 13 40 10 51 -4 15 6 33 33 62 49 53 77 133 62 176 -10
28 -8 35 22 69 17 21 41 61 52 89 14 36 43 75 102 136 46 47 88 96 93 111 6
14 10 95 10 179 l0 154 30 34 c17 19 30 41 30 48 0 8 11 31 25 51 14 21 27 50
29 65 1 15 17 56 34 90 48 94 82 191 82 233 0 20 14 70 31 111 28 68 30 79 23
144 -10 94 -9 204 3 295 10 77 41 150 102 240 l31 45 0 265 c1 211 4 270 15
290 8 14 14 51 14 85 0 57 -1 61 -34 85 -31 23 -33 28 -28 67 5 37 2 47 -26
78 -24 28 -31 45 -31 78 0 23 -8 56 -18 73 -33 59 -57 97 -79 124 -13 15 -23
33 -23 40 0 7 -32 45 -70 85 -60 61 -67 72 -45 67 43 -8 110 18 166 64 30 24
77 60 104 79 70 49 80 57 93 82 15 28 16 225 1 324 -10 64 -9 87 5 149 18 82
21 186 6 275 -7 45 -5 101 9 235 47 431 47 422 22 482 -36 90 -51 159 -51 242
0 75 -20 161 -65 276 -36 91 -29 126 40 203 25 27 48 61 51 76 9 43 19 55 73
86 51 29 62 50 39 73 -8 8 -14 53 -16 120 l-4 107 -62 85 c-89 124 -191 337
-200 420 -10 89 -45 235 -62 257 -13 17 -15 17 -28 1 -7 -10 -19 -18 -25 -18
-14 0 -103 58 -142 92 -35 31 -175 192 -196 226 -9 15 -41 53 -70 84 -56 59
-63 78 -38 98 8 7 15 23 15 35 0 31 85 87 175 115 39 13 78 31 88 41 11 12 32
19 55 19 70 0 110 18 147 67 19 25 35 51 34 57 0 6 -15 40 -32 75 -24 49 -42
70 -71 86 -21 12 -62 43 -91 68 -29 25 -88 73 -131 106 -108 82 -229 205 -221
225 4 9 18 16 32 16 34 0 32 14 -7 41 -18 12 -64 52 -103 90 -38 37 -139 114
-222 169 -126 84 -168 118 -240 198 -101 111 -126 135 -176 178 -32 27 -37 37
-37 75 0 41 -3 46 -41 67 -46 26 -119 90 -119 103 0 5 15 15 33 23 18 7 60 39
93 70 l59 56 -22 18 c-12 11 -68 31 -126 47 l-104 27 -94 -35 c-52 -19 -173
-61 -269 -93 -105 -34 -220 -80 -288 -115 -62 -32 -130 -61 -150 -65 -20 -4
-68 -18 -106 -31 -38 -12 -84 -23 -101 -23 -19 0 -39 -8 -50 -20 -17 -18 -31
-20 -176 -20 -172 0 -196 6 -223 51 l-17 29 33 20 c18 11 40 17 48 14 8 -3 41
-11 74 -17 56 -10 59 -10 77 12 15 18 19 40 19 95 0 79 -4 88 -64 132 -21 15
-49 45 -62 66 -20 31 -45 47 -150 97 -69 34 -128 61 -131 61 -2 0 -28 15 -56
34 -46 29 -63 34 -137 39 -47 4 -173 16 -280 28 -125 14 -247 21 -339 20
l-145 -2 -59 -35 -59 -35 -167 -5 c-110 -4 -194 -12 -247 -25 -60 -14 -119
-19 -223 -19 l-141 0 -97 -46 c-71 -34 -120 -50 -187 -61 -49 -8 -94 -17 -99
-20 -29 -18 -188 -67 -284 -88 -109 -23 -153 -39 -243 -89 -30 -17 -80 -30
-150 -40 -143 -22 -183 -20 -230 7 -38 21 -40 24 -40 72 0 43 6 58 43 107 l42
56 3 122 3 123 56 51 c58 54 162 114 234 135 53 15 139 68 139 85 0 6 -19 31
-43 54 -35 34 -50 42 -80 42 -29 0 -41 6 -59 30 -12 17 -27 30 -33 30 -6 0
-26 -20 -44 -45z m2115 -4115 c32 -13 199 -173 254 -245 21 -27 50 -79 64
-115 23 -59 25 -74 19 -148 -7 -94 -12 -101 -98 -132 -53 -20 -78 -22 -215
-21 -197 2 -409 36 -437 70 -10 12 -42 40 -71 64 l-53 42 -3 142 c-1 78 0 141
3 139 3 -2 43 -25 89 -51 78 -44 87 -47 140 -43 52 5 59 8 102 56 45 48 47 54
53 123 3 39 11 77 17 83 9 9 84 42 102 45 4 1 19 -4 34 -9z m-1418 -82 l8 -31
82 2 c85 2 110 -7 164 -61 24 -24 23 -31 -12 -80 -16 -22 -30 -47 -30 -54 0
-8 -12 -20 -27 -29 -66 -36 -80 -56 -86 -127 -4 -38 -11 -77 -17 -87 -22 -41
-36 -257 -19 -294 10 -23 8 -31 -20 -73 -17 -26 -31 -51 -31 -55 0 -5 -16 -11
-36 -15 -34 -6 -36 -8 -29 -38 4 -17 9 -49 12 -71 8 -56 18 -72 59 -91 19 -9
47 -30 62 -47 15 -17 46 -49 69 -71 23 -23 43 -52 45 -66 2 -14 16 -32 35 -45
18 -11 52 -32 75 -47 24 -15 55 -37 70 -49 15 -12 44 -24 64 -26 20 -2 46 -9
58 -15 45 -24 221 -47 418 -53 177 -6 211 -5 262 10 38 11 60 23 63 35 4 15
16 18 76 18 92 0 194 17 216 35 11 11 60 18 160 25 134 10 146 12 167 36 15
16 43 29 80 36 30 7 64 20 75 31 10 10 30 19 43 19 14 0 33 11 44 25 11 14 25
25 31 25 6 0 11 6 11 14 0 48 59 105 146 141 38 16 74 32 79 36 6 5 52 14 103
20 81 11 94 16 109 38 9 14 33 42 54 63 30 29 38 44 41 80 3 41 5 43 36 46
l32 3 0 -72 c0 -63 4 -78 31 -123 18 -28 49 -66 70 -84 32 -28 39 -40 39 -70
0 -25 8 -46 23 -62 12 -14 46 -53 76 -88 64 -75 107 -101 226 -137 83 -25 98
-27 197 -20 58 3 126 12 150 19 38 12 43 17 46 45 l3 32 97 -3 97 -3 3 -96 3
-97 -51 -87 c-39 -69 -50 -97 -50 -131 0 -42 2 -44 28 -44 17 0 54 -17 90 -41
l62 -42 0 -137 c0 -75 3 -139 6 -143 3 -3 28 6 55 19 42 22 55 24 92 16 23 -6
32 -10 20 -11 -25 -1 -267 -102 -315 -131 -18 -11 -44 -20 -57 -20 -14 0 -46
-19 -77 -45 -53 -46 -72 -53 -91 -34 -7 7 -20 -2 -43 -31 -48 -60 -136 -128
-182 -141 -23 -6 -69 -28 -104 -49 -35 -21 -72 -41 -82 -44 -10 -3 -55 -49
-101 -102 -60 -69 -96 -101 -127 -115 -24 -10 -44 -23 -44 -28 0 -5 -13 -17
-29 -28 -56 -35 -156 -125 -173 -156 -9 -16 -28 -42 -41 -56 -47 -53 -79 -112
-67 -126 15 -18 -69 -66 -130 -74 -36 -5 -48 -12 -65 -38 -11 -18 -25 -32 -32
-33 -12 0 -73 -113 -73 -135 0 -7 -9 -20 -21 -31 -11 -10 -18 -26 -15 -36 3
-13 -5 -23 -24 -33 -31 -16 -74 -97 -125 -235 -16 -41 -34 -84 -41 -95 -7 -11
-18 -42 -25 -70 -6 -27 -18 -63 -26 -79 -8 -15 -16 -42 -18 -60 -2 -17 -9 -67
-16 -111 -15 -96 -18 -233 -7 -258 6 -12 2 -24 -15 -41 -20 -20 -25 -38 -30
-104 -6 -73 -2 -98 20 -162 3 -8 5 -67 3 -130 -1 -86 -5 -119 -16 -132 -12
-12 -15 -36 -13 -91 2 -49 -1 -80 -9 -90 -7 -8 -13 -40 -13 -71 -1 -31 -4 -56
-9 -56 -11 0 -31 -214 -19 -218 5 -2 9 -35 9 -72 0 -49 5 -78 19 -102 16 -28
20 -63 25 -225 4 -127 11 -205 20 -230 8 -21 17 -60 20 -87 3 -27 14 -58 24
-69 13 -15 17 -39 18 -109 2 -66 6 -94 18 -107 9 -10 23 -39 32 -65 13 -38 14
-50 4 -56 -9 -6 6 -30 52 -86 50 -61 79 -86 127 -112 35 -17 75 -32 90 -32 15
0 51 -12 79 -26 34 -17 61 -24 76 -20 15 4 44 -3 78 -19 98 -46 258 -30 398
38 57 28 74 32 143 31 42 -1 83 -6 90 -12 6 -5 52 -15 101 -22 50 -6 93 -13
97 -16 15 -9 134 36 170 66 42 33 107 60 146 60 39 0 90 29 136 76 l42 44 81
0 c84 0 110 10 116 45 3 17 12 20 58 23 68 4 177 -21 142 -32 -15 -5 -22 -15
-22 -33 0 -13 -8 -35 -18 -47 -11 -15 -17 -39 -17 -67 1 -24 -1 -46 -4 -49 -3
-3 -26 -45 -50 -95 -24 -49 -47 -97 -52 -105 -5 -8 -13 -25 -18 -36 -6 -13
-33 -31 -65 -44 -30 -13 -56 -31 -59 -41 -6 -21 -96 -88 -119 -89 -9 0 -19 -4
-23 -10 -3 -5 -34 -7 -68 -5 -43 2 -69 -1 -85 -11 -12 -8 -59 -28 -105 -45
-70 -26 -97 -31 -183 -32 -83 -2 -106 -5 -122 -20 -18 -17 -37 -18 -194 -16
-95 2 -180 -1 -188 -6 -13 -8 -159 -23 -276 -29 -28 -1 -51 -10 -73 -28 -34
-29 -30 -37 23 -42 19 -2 51 -13 71 -25 20 -11 51 -21 69 -21 19 0 40 -7 47
-16 15 -18 59 -39 74 -35 43 11 72 7 128 -19 l62 -30 263 0 c234 0 273 2 345
21 45 11 91 27 103 34 12 7 54 15 94 17 70 2 73 1 97 -27 20 -25 23 -37 18
-74 -5 -31 -3 -46 7 -53 10 -7 10 -11 -3 -21 -17 -13 -99 -208 -99 -235 0 -8
-8 -29 -19 -46 -10 -17 -22 -42 -26 -56 -8 -25 -25 -50 -77 -114 -16 -19 -28
-41 -28 -50 0 -9 -4 -16 -10 -16 -5 0 -10 -8 -10 -18 0 -9 -10 -28 -23 -42
-30 -33 -95 -127 -113 -165 -38 -79 -81 -137 -171 -233 -29 -30 -53 -61 -53
-68 0 -18 -184 -154 -209 -154 -5 0 -20 -21 -33 -47 -13 -27 -37 -55 -55 -66
-18 -10 -33 -23 -33 -28 0 -5 -8 -9 -19 -9 -10 0 -24 -7 -31 -15 -7 -8 -22
-15 -34 -15 -11 -1 -36 -14 -55 -30 -19 -16 -38 -27 -43 -24 -5 4 -20 -4 -33
-16 -15 -14 -30 -20 -43 -16 -15 5 -25 -1 -42 -29 -12 -19 -26 -35 -32 -35 -5
0 -35 -25 -67 -55 -32 -30 -62 -55 -68 -55 -6 0 -21 -9 -34 -19 -15 -11 -46
-21 -79 -23 -30 -3 -80 -12 -110 -21 -30 -8 -75 -15 -100 -15 -79 -1 -138 -13
-156 -33 -9 -10 -27 -19 -40 -19 -13 0 -38 -9 -56 -19 -18 -10 -44 -22 -58
-26 -23 -7 -24 -7 -10 10 14 17 11 17 -55 11 -39 -4 -88 -11 -110 -16 -22 -5
-114 -14 -205 -21 -204 -14 -404 0 -514 37 -76 26 -143 36 -405 59 -137 12
-192 21 -260 44 -91 31 -134 41 -271 66 -47 8 -126 31 -175 51 -50 20 -97 37
-105 38 -8 1 -37 13 -65 28 -27 14 -93 40 -146 57 -164 54 -399 200 -399 247
0 41 -145 188 -253 257 -62 40 -81 58 -104 102 -28 53 -161 205 -257 294 -105
97 -215 217 -221 241 -8 29 -67 100 -160 190 -59 58 -117 125 -248 288 -20 26
-40 58 -44 72 -3 14 -17 41 -29 60 -54 81 -107 156 -133 186 l-29 32 26 52
c14 29 32 54 39 57 7 3 41 -13 76 -35 41 -27 82 -44 121 -51 91 -17 86 -21 86
72 l0 84 39 11 c53 16 130 15 181 -3 23 -8 68 -15 99 -15 31 0 110 -7 176 -15
66 -8 138 -14 160 -14 22 1 59 -7 83 -16 81 -33 213 6 249 73 18 36 20 37 83
40 36 2 101 -2 145 -8 265 -38 305 -34 324 30 7 24 18 40 27 40 15 0 227 66
254 80 9 4 17 27 20 53 3 26 11 52 18 59 16 16 16 202 0 227 -9 15 -9 31 0 71
7 28 12 92 12 141 0 89 0 90 36 125 25 26 33 41 28 53 -15 29 -7 105 18 196
60 213 68 251 68 322 0 66 2 73 20 73 19 0 20 7 21 198 1 108 0 202 -2 207 -8
25 9 192 21 215 5 9 9 76 9 148 -1 128 -1 133 -24 148 -32 21 -43 55 -48 156
-3 59 -11 101 -25 130 -11 24 -28 67 -36 97 -9 30 -22 61 -30 70 -7 9 -35 63
-61 121 -26 58 -60 131 -76 164 -21 41 -29 73 -29 110 0 55 -34 125 -92 191
-55 63 -108 130 -108 137 0 11 -129 200 -180 263 -22 28 -54 78 -71 112 -17
34 -43 70 -58 79 -30 20 -37 29 -90 104 -29 42 -59 68 -118 103 -43 26 -100
64 -128 83 -149 106 -216 157 -228 174 -7 11 -40 31 -72 45 -32 15 -69 35 -82
45 -14 11 -50 26 -81 35 -31 9 -66 25 -77 35 -40 36 -103 58 -250 89 -165 35
-183 40 -300 81 -78 28 -86 29 -335 34 -275 5 -310 9 -310 35 0 24 90 109 120
113 14 2 24 9 22 16 -1 7 5 34 14 60 36 103 38 115 54 354 1 11 15 21 36 27
20 5 57 30 83 54 38 36 56 45 98 51 38 5 66 17 104 46 28 21 70 48 93 60 l41
22 -3 123 c-3 101 -1 125 12 138 9 8 16 23 16 31 0 17 55 56 78 56 8 0 32 13
55 29 35 24 56 30 120 35 59 4 89 12 125 33 26 15 50 31 53 35 3 5 68 8 145 8
133 -1 194 6 194 23 0 4 11 20 25 35 14 15 25 34 25 42 0 28 72 86 153 124 43
20 82 36 87 36 4 0 31 19 59 43 27 24 67 52 87 63 20 10 45 34 55 53 10 18 27
43 38 55 11 12 26 36 32 53 6 20 30 45 62 67 43 30 61 36 102 36 47 0 54 4
103 50 29 28 57 50 62 50 6 0 10 7 10 16 0 21 23 42 67 61 21 8 52 27 69 42
67 56 75 61 107 61 17 0 45 7 60 15 21 10 34 12 47 5 29 -16 59 -12 77 10 27
32 61 26 71 -12z m-3435 -2039 c75 -19 216 -174 203 -224 -9 -34 -51 -80 -86
-95 -16 -7 -30 -15 -30 -19 0 -4 -35 -35 -78 -70 -102 -84 -132 -124 -132
-172 0 -28 5 -41 20 -49 30 -16 24 -46 -15 -82 -20 -17 -34 -37 -31 -44 3 -7
-2 -18 -10 -24 -8 -7 -14 -19 -14 -28 0 -8 -23 -37 -50 -64 -51 -50 -83 -108
-74 -132 3 -7 -2 -19 -11 -26 -8 -7 -15 -21 -15 -32 0 -11 -18 -53 -40 -94
-22 -41 -40 -84 -40 -95 0 -17 -7 -13 -35 21 -19 23 -35 43 -35 43 0 1 -4 28
-10 61 -6 37 -6 95 0 158 l10 101 -38 46 c-51 61 -56 70 -43 85 6 6 15 58 20
113 7 81 14 109 35 142 14 22 26 46 26 53 0 7 16 24 35 37 20 13 61 61 91 107
31 45 67 92 80 105 13 12 24 28 24 36 0 7 4 13 10 13 5 0 21 25 35 55 35 74
65 97 119 89 22 -3 58 -10 79 -15z m354 -215 c-3 -3 -12 -4 -19 -1 -8 3 -5 6
6 6 11 1 17 -2 13 -5z m-868 -1488 c-9 -8 -10 -7 -5 7 3 10 7 24 7 30 1 7 3 4
6 -7 3 -10 -1 -23 -8 -30z"/>
<path d="M8519 3008 c-6 -13 -40 -50 -75 -84 -59 -56 -64 -64 -64 -102 0 -30
-6 -47 -20 -59 -24 -21 -25 -36 -6 -71 8 -15 17 -35 20 -45 3 -9 18 -23 33
-30 15 -6 35 -20 43 -30 15 -18 17 -18 55 4 48 28 105 87 105 109 0 9 4 20 9
25 5 6 11 65 14 132 l6 122 -30 26 c-38 31 -74 33 -90 3z"/>
<path d="M7875 2853 c-63 -6 -183 -62 -187 -87 -2 -14 -15 -25 -38 -32 -19 -6
-36 -18 -38 -25 -3 -8 -16 -26 -30 -41 -23 -25 -24 -29 -10 -45 9 -10 18 -34
22 -54 6 -34 9 -36 64 -47 73 -15 98 -15 143 1 44 15 69 35 69 53 0 7 13 28
29 46 15 18 33 43 40 55 21 41 9 187 -16 181 -5 -1 -26 -3 -48 -5z"/>
</g>
</svg>
