<?xml version="1.0" standalone="no"?>
<!DOCTYPE svg PUBLIC "-//W3C//DTD SVG 20010904//EN"
 "http://www.w3.org/TR/2001/REC-SVG-20010904/DTD/svg10.dtd">
<svg version="1.0" xmlns="http://www.w3.org/2000/svg"
 width="300.000000pt" height="150.000000pt" viewBox="0 0 300.000000 150.000000"
 preserveAspectRatio="xMidYMid meet">

<g transform="translate(0.000000,150.000000) scale(0.100000,-0.100000)"
fill="#000000" stroke="none">
<path d="M1291 1456 c-49 -22 -119 -62 -159 -91 -32 -23 -41 -37 -42 -60 -1
-27 -8 -33 -73 -65 -54 -26 -72 -40 -72 -55 0 -16 6 -19 26 -17 23 2 27 -1 25
-23 -1 -22 -9 -28 -50 -40 -27 -8 -57 -15 -66 -15 -9 0 -25 -9 -34 -19 -17
-18 -16 -20 3 -26 27 -8 27 -21 1 -28 -23 -6 -27 -27 -5 -27 23 0 18 -14 -12
-33 -28 -17 -28 -17 -5 -23 22 -6 31 -24 12 -24 -5 0 -10 -4 -10 -10 0 -5 7
-10 15 -10 19 0 19 -3 -5 -42 -11 -18 -20 -36 -20 -40 0 -14 23 -9 42 9 18 16
18 14 13 -53 -3 -38 -8 -77 -11 -86 -7 -25 25 -16 47 13 16 21 19 22 24 7 4
-9 4 -22 0 -28 -3 -5 3 -22 15 -37 14 -18 19 -35 15 -50 -3 -12 -1 -31 4 -40
5 -10 24 -52 42 -93 17 -41 40 -93 49 -115 10 -23 34 -60 54 -84 20 -24 36
-46 36 -50 0 -7 40 -48 100 -103 10 -9 48 -31 86 -48 64 -31 72 -32 156 -28
62 4 94 10 107 22 10 9 21 16 26 16 5 0 26 12 47 26 55 39 135 150 149 210 14
59 48 142 67 166 8 9 11 22 7 28 -4 6 -2 17 4 24 7 8 14 37 18 65 3 28 10 54
14 57 16 9 9 68 -11 101 -19 32 -19 33 -1 43 15 7 20 24 23 82 2 40 0 88 -5
107 -6 22 -5 37 2 44 16 16 13 52 -4 67 -8 7 -15 21 -15 31 0 10 -11 26 -24
34 -38 25 -40 43 -5 58 l30 12 -70 70 c-39 39 -71 78 -71 88 0 21 -22 22 -58
3 -15 -8 -46 -17 -67 -21 -33 -6 -38 -5 -27 6 18 19 15 27 -16 43 -23 12 -128
16 -152 6 -3 -1 -15 -1 -27 -1 -11 1 -24 -3 -28 -9 -3 -5 -11 -8 -16 -4 -5 3
-16 0 -24 -6 -8 -7 -15 -9 -15 -5 0 4 -6 3 -12 -2 -7 -5 -24 -10 -36 -11 -17
-1 -22 3 -18 14 3 9 6 22 6 30 0 8 6 14 14 14 8 0 18 5 22 11 11 18 -9 26 -35
15z m265 -465 c-9 -15 -69 -14 -84 1 -17 17 -15 31 3 24 9 -3 19 3 26 16 11
20 11 20 36 -5 14 -14 22 -30 19 -36z m-152 40 c3 -5 -1 -14 -10 -21 -8 -7
-12 -20 -9 -28 3 -8 0 -21 -6 -28 -16 -20 13 -51 59 -64 55 -15 145 11 205 59
15 12 17 12 17 -2 0 -10 9 -26 21 -38 15 -15 27 -19 50 -14 28 6 29 5 23 -19
-4 -16 -2 -26 5 -26 26 0 7 -30 -36 -58 -60 -39 -129 -108 -142 -145 -6 -15
-13 -69 -17 -120 -7 -104 6 -171 36 -187 26 -14 116 -6 163 14 42 18 49 8 21
-32 -15 -22 -68 -36 -126 -35 -16 0 -28 -3 -28 -8 0 -12 66 -22 100 -16 39 8
43 -2 19 -49 -49 -92 -115 -135 -216 -142 -84 -5 -199 19 -239 51 -40 31 -154
168 -154 185 0 12 3 12 15 2 11 -9 15 -9 15 -1 0 8 17 12 48 11 118 -1 138 8
146 73 19 158 18 161 -2 220 -39 110 -121 182 -222 194 -36 4 -48 9 -41 16 6
6 11 19 11 28 0 9 11 24 25 33 14 9 25 23 25 30 0 8 14 19 30 25 17 5 30 8 30
5 0 -3 12 4 28 16 87 67 107 80 128 80 13 0 25 -4 28 -9z m-363 -236 c-10 -11
-24 -35 -32 -52 -18 -43 -25 -42 -26 4 -1 22 7 47 19 64 17 23 24 26 39 16 18
-11 18 -12 0 -32z"/>
<path d="M1512 278 c-16 -16 -15 -28 2 -28 16 0 29 27 17 34 -4 3 -13 0 -19
-6z"/>
<path d="M1437 263 c-12 -11 -8 -23 7 -23 8 0 16 7 20 15 5 15 -14 21 -27 8z"/>
</g>
</svg>
